<svg width="24" height="24" viewBox="0 0 24 24" fill="none" xmlns="http://www.w3.org/2000/svg">
<g clip-path="url(#clip0_830_15085)">
<path d="M11.5286 10.116C14.322 10.116 16.5867 7.85134 16.5867 5.05789C16.5867 2.26443 14.322 0 11.5286 0C8.73514 0 6.4707 2.26464 6.4707 5.05809C6.47384 7.85008 8.7366 10.1128 11.5286 10.116ZM11.5286 1.07143C13.7305 1.07143 15.5153 2.85623 15.5153 5.05809C15.5153 7.25975 13.7305 9.04455 11.5286 9.04455C9.32693 9.04455 7.54213 7.25975 7.54213 5.05809C7.54464 2.85728 9.32798 1.07394 11.5286 1.07143Z" fill="white"></path>
<path d="M11.6606 11.8976C6.46393 11.8956 2.25084 16.1089 2.25293 21.3053V23.4642C2.25293 23.7601 2.49275 23.9999 2.78864 23.9999H20.5325C20.8284 23.9999 21.0682 23.7601 21.0682 23.4642V21.3053C21.0705 16.1089 16.8572 11.8956 11.6606 11.8976ZM19.9968 22.9285H3.32436V21.3053C3.31682 18.322 4.90408 15.5623 7.48639 14.0683C10.0687 12.5746 13.2524 12.5746 15.8349 14.0683C18.4172 15.5623 20.0045 18.322 19.9968 21.3053V22.9285Z" fill="white"></path>
</g>
<defs>
<clipPath id="clip0_830_15085">
<rect width="24" height="24" fill="white" transform="translate(-0.318359)"></rect>
</clipPath>
</defs>
</svg>