<svg width="31" height="30" viewBox="0 0 31 30" fill="none" xmlns="http://www.w3.org/2000/svg">
<path d="M28.2702 9.69001H1.58023C1.25023 9.69001 0.990234 9.43001 0.990234 9.10001C0.990234 8.77001 1.25023 8.51001 1.58023 8.51001H28.2702C28.6002 8.51001 28.8602 8.77001 28.8602 9.10001C28.8602 9.43001 28.6002 9.69001 28.2702 9.69001Z" fill="#090909"></path>
<path d="M6.47023 7.19999C5.38023 7.19999 4.49023 6.30999 4.49023 5.21999C4.49023 4.12999 5.38023 3.23999 6.47023 3.23999C7.56023 3.23999 8.45023 4.12999 8.45023 5.21999C8.45023 6.30999 7.56023 7.19999 6.47023 7.19999ZM6.47023 4.41999C6.03023 4.41999 5.67023 4.77999 5.67023 5.21999C5.67023 5.65999 6.03023 6.01999 6.47023 6.01999C6.91023 6.01999 7.27023 5.65999 7.27023 5.21999C7.27023 4.77999 6.91023 4.41999 6.47023 4.41999Z" fill="#090909"></path>
<path d="M23.8098 7.19999H18.5698C17.4798 7.19999 16.5898 6.30999 16.5898 5.21999C16.5898 4.12999 17.4798 3.23999 18.5698 3.23999H23.8098C24.8998 3.23999 25.7898 4.12999 25.7898 5.21999C25.7898 6.30999 24.8998 7.19999 23.8098 7.19999ZM18.5698 4.41999C18.1298 4.41999 17.7698 4.77999 17.7698 5.21999C17.7698 5.65999 18.1298 6.01999 18.5698 6.01999H23.8098C24.2498 6.01999 24.6098 5.65999 24.6098 5.21999C24.6098 4.77999 24.2498 4.41999 23.8098 4.41999H18.5698Z" fill="#090909"></path>
<path d="M11.6099 7.19999C10.5199 7.19999 9.62988 6.30999 9.62988 5.21999C9.62988 4.12999 10.5199 3.23999 11.6099 3.23999C12.6999 3.23999 13.5899 4.12999 13.5899 5.21999C13.5899 6.30999 12.6999 7.19999 11.6099 7.19999ZM11.6099 4.41999C11.1699 4.41999 10.8099 4.77999 10.8099 5.21999C10.8099 5.65999 11.1699 6.01999 11.6099 6.01999C12.0499 6.01999 12.4099 5.65999 12.4099 5.21999C12.4099 4.77999 12.0499 4.41999 11.6099 4.41999Z" fill="#090909"></path>
<path d="M9.34056 19.11C9.34056 19.11 9.25056 19.11 9.20056 19.09C8.88056 19.01 8.69056 18.69 8.76056 18.38L9.93056 13.47C10.0106 13.15 10.3306 12.96 10.6406 13.03C10.9606 13.11 11.1506 13.42 11.0806 13.74L9.91056 18.65C9.85056 18.92 9.60056 19.1 9.34056 19.1V19.11Z" fill="#090909"></path>
<path d="M13.2104 18.66C13.0704 18.66 12.9304 18.61 12.8204 18.51C12.5804 18.29 12.5504 17.92 12.7704 17.68L14.2104 16.06L12.7704 14.44C12.5504 14.2 12.5704 13.82 12.8204 13.61C13.0604 13.39 13.4404 13.41 13.6504 13.66L15.3104 15.52C15.5804 15.82 15.5804 16.3 15.3104 16.6L13.6504 18.46C13.5304 18.59 13.3704 18.66 13.2104 18.66Z" fill="#090909"></path>
<path d="M6.64039 18.66C6.48039 18.66 6.32039 18.59 6.20039 18.46L4.54039 16.6C4.27039 16.3 4.27039 15.82 4.54039 15.52L6.20039 13.66C6.42039 13.41 6.79039 13.39 7.03039 13.61C7.27039 13.83 7.30039 14.2 7.08039 14.44L5.64039 16.06L7.08039 17.68C7.30039 17.92 7.28039 18.3 7.03039 18.51C6.92039 18.61 6.78039 18.66 6.64039 18.66Z" fill="#090909"></path>
<path d="M23.9902 29.2999H22.9202C22.1902 29.2999 21.6002 28.7099 21.6002 27.9699V27.7399C21.2302 27.6299 20.8702 27.4799 20.5302 27.2999L20.3702 27.4599C19.8702 27.9599 18.9902 27.9599 18.5002 27.4599L17.7402 26.6999C17.2202 26.1799 17.2202 25.3499 17.7402 24.8299L17.9002 24.6699C17.7202 24.3299 17.5702 23.9699 17.4602 23.6099H17.2302C16.5002 23.6099 15.9102 23.0199 15.9102 22.2899V21.2199C15.9102 20.4899 16.5002 19.8999 17.2302 19.8999H17.4502C17.5602 19.5299 17.7102 19.1799 17.8902 18.8399L17.7302 18.6799C17.4802 18.4299 17.3402 18.0999 17.3402 17.7499C17.3402 17.3899 17.4802 17.0599 17.7302 16.8099L18.4902 16.0499C18.9902 15.5499 19.8702 15.5499 20.3602 16.0499L20.5102 16.1999C20.8502 16.0199 21.2102 15.8699 21.5802 15.7499V15.5199C21.5802 14.7899 22.1702 14.1899 22.9002 14.1899H23.9702C24.7002 14.1899 25.2902 14.7799 25.2902 15.5199V15.7299C25.6702 15.8499 26.0302 15.9999 26.3802 16.1799L26.5402 16.0199C26.7902 15.7699 27.1202 15.6299 27.4702 15.6299C27.8202 15.6299 28.1602 15.7699 28.4102 16.0199L29.1702 16.7699C29.4202 17.0199 29.5602 17.3499 29.5602 17.7099C29.5602 18.0599 29.4202 18.3999 29.1702 18.6399L29.0102 18.7999C29.1902 19.1399 29.3402 19.4999 29.4602 19.8799H29.6802C30.4102 19.8799 31.0002 20.4699 31.0002 21.1999V22.2699C31.0002 22.9999 30.4102 23.5899 29.6802 23.5899H29.4602C29.3502 23.9599 29.2002 24.3099 29.0202 24.6499L29.1802 24.8099C29.4302 25.0599 29.5702 25.3899 29.5702 25.7499C29.5702 26.1099 29.4302 26.4399 29.1802 26.6899L28.4302 27.4499C28.1802 27.6999 27.8502 27.8399 27.4902 27.8399C27.1402 27.8399 26.8002 27.6999 26.5502 27.4499L26.3902 27.2899C26.0502 27.4699 25.6902 27.6199 25.3202 27.7299V27.9599C25.3202 28.6899 24.7302 29.2899 24.0002 29.2899L23.9902 29.2999ZM20.4302 25.9699C20.5402 25.9699 20.6502 25.9999 20.7402 26.0599C21.2302 26.3699 21.7602 26.5899 22.3102 26.7099C22.5802 26.7699 22.7702 27.0099 22.7702 27.2899V27.9699C22.7702 28.0499 22.8402 28.1099 22.9102 28.1099H23.9802C24.0602 28.1099 24.1202 28.0399 24.1202 27.9699V27.2899C24.1202 27.0099 24.3102 26.7699 24.5802 26.7099C25.1402 26.5799 25.6702 26.3599 26.1602 26.0599C26.4002 25.9099 26.7002 25.9499 26.8902 26.1399L27.3702 26.6199C27.3702 26.6199 27.4502 26.6599 27.4702 26.6599C27.4702 26.6599 27.5402 26.6599 27.5702 26.6199L28.3302 25.8599C28.3302 25.8599 28.3702 25.7899 28.3702 25.7599C28.3702 25.7399 28.3702 25.6999 28.3302 25.6599L27.8502 25.1799C27.6502 24.9799 27.6202 24.6799 27.7702 24.4499C28.0702 23.9599 28.2902 23.4399 28.4202 22.8799C28.4802 22.6099 28.7202 22.4199 29.0002 22.4199H29.6802C29.7602 22.4199 29.8202 22.3499 29.8202 22.2799V21.2099C29.8202 21.1299 29.7502 21.0699 29.6802 21.0699H29.0102C28.7302 21.0699 28.5002 20.8799 28.4302 20.6099C28.3002 20.0499 28.0802 19.5199 27.7702 19.0299C27.6202 18.7999 27.6602 18.4899 27.8502 18.2999L28.3302 17.8199C28.3302 17.8199 28.3702 17.7499 28.3702 17.7199C28.3702 17.6899 28.3702 17.6499 28.3302 17.6199L27.5702 16.8699C27.5702 16.8699 27.4902 16.8299 27.4702 16.8299C27.4702 16.8299 27.4102 16.8299 27.3702 16.8699L26.8902 17.3499C26.6902 17.5399 26.3902 17.5799 26.1602 17.4299C25.6602 17.1199 25.1202 16.8999 24.5602 16.7699C24.2902 16.7099 24.1002 16.4699 24.1002 16.1899V15.5199C24.1002 15.4399 24.0302 15.3799 23.9602 15.3799H22.8902C22.8102 15.3799 22.7502 15.4399 22.7502 15.5199V16.1999C22.7502 16.4699 22.5602 16.7099 22.2902 16.7799C21.7302 16.9099 21.2002 17.1299 20.7202 17.4399C20.4902 17.5899 20.1802 17.5499 19.9902 17.3599L19.5102 16.8899C19.5102 16.8899 19.3602 16.8399 19.3102 16.8899L18.5602 17.6399C18.5602 17.6399 18.5202 17.7199 18.5202 17.7399C18.5202 17.7699 18.5202 17.8099 18.5602 17.8399L19.0402 18.3299C19.2302 18.5199 19.2702 18.8299 19.1202 19.0599C18.8202 19.5399 18.6002 20.0699 18.4802 20.6199C18.4202 20.8899 18.1802 21.0799 17.9002 21.0799H17.2202C17.1402 21.0799 17.0802 21.1399 17.0802 21.2199V22.2899C17.0802 22.3699 17.1502 22.4299 17.2202 22.4299H17.9002C18.1802 22.4299 18.4102 22.6199 18.4802 22.8899C18.6102 23.4499 18.8302 23.9799 19.1302 24.4599C19.2802 24.6899 19.2402 24.9999 19.0502 25.1899L18.5702 25.6699C18.5202 25.7199 18.5202 25.8199 18.5702 25.8699L19.3302 26.6299C19.3302 26.6299 19.4802 26.6799 19.5302 26.6299L20.0102 26.1499C20.1202 26.0399 20.2802 25.9799 20.4302 25.9799V25.9699Z" fill="#090909"></path>
<path d="M23.4498 25.3599C21.4598 25.3599 19.8398 23.7399 19.8398 21.7499C19.8398 19.7599 21.4598 18.1399 23.4498 18.1399C25.4398 18.1399 27.0598 19.7599 27.0598 21.7499C27.0598 23.7399 25.4398 25.3599 23.4498 25.3599ZM23.4498 19.3199C22.1098 19.3199 21.0198 20.4099 21.0198 21.7499C21.0198 23.0899 22.1098 24.1799 23.4498 24.1799C24.7898 24.1799 25.8798 23.0899 25.8798 21.7499C25.8798 20.4099 24.7898 19.3199 23.4498 19.3199Z" fill="#090909"></path>
<path d="M17.2202 23.61H12.4602C12.1302 23.61 11.8702 23.35 11.8702 23.02C11.8702 22.69 12.1302 22.43 12.4602 22.43H17.2202C17.5502 22.43 17.8102 22.69 17.8102 23.02C17.8102 23.35 17.5502 23.61 17.2202 23.61ZM7.23023 23.61H3.76023C2.24023 23.61 0.990234 22.18 0.990234 20.42V3.88995C0.990234 2.12995 2.24023 0.699951 3.76023 0.699951H26.0902C27.6202 0.699951 28.8602 2.12995 28.8602 3.89995V16.74C28.8602 17.07 28.6002 17.33 28.2702 17.33C27.9402 17.33 27.6802 17.07 27.6802 16.74V3.88995C27.6802 2.79995 26.9502 1.86995 26.0902 1.86995H3.76023C2.90023 1.86995 2.17023 2.78995 2.17023 3.88995V20.42C2.17023 21.51 2.90023 22.43 3.76023 22.43H7.23023C7.56023 22.43 7.82023 22.69 7.82023 23.02C7.82023 23.35 7.56023 23.61 7.23023 23.61Z" fill="#090909"></path>
<path d="M9.87051 23.6099C9.54051 23.6099 9.27051 23.3499 9.27051 23.0199C9.27051 22.6899 9.53051 22.4299 9.86051 22.4299H9.87051C10.2005 22.4299 10.4605 22.6899 10.4605 23.0199C10.4605 23.3499 10.2005 23.6099 9.87051 23.6099Z" fill="#090909"></path>
</svg>