<svg width="18" height="18" viewBox="0 0 18 18" fill="none" xmlns="http://www.w3.org/2000/svg">
<path d="M9 0.900037C7.59873 0.897978 6.22096 1.26 5.0017 1.95064C3.78244 2.64127 2.76352 3.63682 2.04479 4.83972C1.32606 6.04263 0.93217 7.41163 0.901722 8.81257C0.871273 10.2135 1.20531 11.5983 1.8711 12.8313L0.937799 15.9408C0.897368 16.0753 0.888947 16.2173 0.913207 16.3556C0.937468 16.4938 0.993737 16.6245 1.07752 16.7372C1.1613 16.8498 1.27027 16.9413 1.39572 17.0043C1.52117 17.0673 1.65962 17.1001 1.8 17.1C1.88776 17.0999 1.97505 17.0872 2.0592 17.0622L5.1687 16.1289C6.25402 16.7144 7.45869 17.0443 8.69087 17.0936C9.92304 17.1428 11.1502 16.9101 12.2788 16.4131C13.4074 15.9161 14.4076 15.168 15.2031 14.2258C15.9987 13.2836 16.5687 12.1721 16.8695 10.9762C17.1704 9.78035 17.1942 8.53155 16.9392 7.32504C16.6842 6.11853 16.1571 4.98618 15.3981 4.0143C14.639 3.04242 13.6681 2.25668 12.5593 1.71698C11.4505 1.17727 10.2332 0.897861 9 0.900037ZM9 4.50004C9.178 4.50004 9.35201 4.55282 9.50001 4.65171C9.64802 4.75061 9.76337 4.89117 9.83149 5.05562C9.89961 5.22008 9.91743 5.40104 9.88271 5.57562C9.84798 5.7502 9.76226 5.91057 9.63639 6.03643C9.51053 6.1623 9.35016 6.24802 9.17558 6.28274C9.001 6.31747 8.82004 6.29965 8.65558 6.23153C8.49113 6.16341 8.35057 6.04805 8.25168 5.90005C8.15278 5.75205 8.1 5.57804 8.1 5.40004C8.1 5.16134 8.19482 4.93242 8.3636 4.76364C8.53239 4.59486 8.7613 4.50004 9 4.50004ZM9.9 13.5H9C8.7613 13.5 8.53239 13.4052 8.3636 13.2364C8.19482 13.0677 8.1 12.8387 8.1 12.6V9.00004C7.8613 9.00004 7.63239 8.90522 7.4636 8.73643C7.29482 8.56765 7.2 8.33873 7.2 8.10004C7.2 7.86134 7.29482 7.63242 7.4636 7.46364C7.63239 7.29486 7.8613 7.20004 8.1 7.20004H9C9.23869 7.20004 9.46761 7.29486 9.63639 7.46364C9.80518 7.63242 9.9 7.86134 9.9 8.10004V11.7C10.1387 11.7 10.3676 11.7949 10.5364 11.9636C10.7052 12.1324 10.8 12.3613 10.8 12.6C10.8 12.8387 10.7052 13.0677 10.5364 13.2364C10.3676 13.4052 10.1387 13.5 9.9 13.5Z" fill="#000000" style="fill: rgb(117, 167, 77);"></path>
</svg>