<svg width="20" height="30" viewBox="0 0 20 30" fill="none" xmlns="http://www.w3.org/2000/svg">
<path d="M17.6201 30H2.38012C1.41012 30 0.620117 29.21 0.620117 28.24V1.76C0.620117 0.79 1.41012 0 2.38012 0H17.6101C18.5801 0 19.3701 0.79 19.3701 1.76V28.24C19.3701 29.21 18.5801 30 17.6101 30H17.6201ZM2.38012 1.17C2.06012 1.17 1.79012 1.43 1.79012 1.76V28.24C1.79012 28.56 2.05012 28.83 2.38012 28.83H17.6101C17.9301 28.83 18.2001 28.57 18.2001 28.24V1.76C18.2001 1.44 17.9401 1.17 17.6101 1.17H2.38012Z" fill="#090909"></path>
<path d="M16.4497 27.66H3.55973C3.23973 27.66 2.96973 27.4 2.96973 27.07V15.82C2.96973 15.5 3.22973 15.23 3.55973 15.23H16.4497C16.7697 15.23 17.0397 15.49 17.0397 15.82V27.07C17.0397 27.39 16.7797 27.66 16.4497 27.66ZM4.14973 26.49H15.8697V16.41H4.13973V26.49H4.14973Z" fill="#090909"></path>
<path d="M16.1498 7.02998H3.84977C3.52977 7.02998 3.25977 6.76998 3.25977 6.43998C3.25977 6.10998 3.51977 5.84998 3.84977 5.84998H16.1498C16.4698 5.84998 16.7398 6.10998 16.7398 6.43998C16.7398 6.76998 16.4798 7.02998 16.1498 7.02998Z" fill="#090909"></path>
<path d="M16.1498 10.55H3.84977C3.52977 10.55 3.25977 10.29 3.25977 9.96C3.25977 9.63 3.51977 9.37 3.84977 9.37H16.1498C16.4698 9.37 16.7398 9.63 16.7398 9.96C16.7398 10.29 16.4798 10.55 16.1498 10.55Z" fill="#090909"></path>
<path d="M16.4497 14.06H3.55973C3.23973 14.06 2.96973 13.8 2.96973 13.47V2.92997C2.96973 2.60997 3.22973 2.33997 3.55973 2.33997H16.4497C16.7697 2.33997 17.0397 2.59997 17.0397 2.92997V13.48C17.0397 13.8 16.7797 14.07 16.4497 14.07V14.06ZM4.14973 12.89H15.8697V3.51997H4.13973V12.89H4.14973Z" fill="#090909"></path>
<path d="M10.0004 25.55C7.74039 25.55 5.90039 23.71 5.90039 21.45C5.90039 19.19 7.74039 17.35 10.0004 17.35C12.2604 17.35 14.1004 19.19 14.1004 21.45C14.1004 23.71 12.2604 25.55 10.0004 25.55ZM10.0004 18.52C8.38039 18.52 7.07039 19.83 7.07039 21.45C7.07039 23.07 8.38039 24.38 10.0004 24.38C11.6204 24.38 12.9304 23.07 12.9304 21.45C12.9304 19.83 11.6204 18.52 10.0004 18.52Z" fill="#090909"></path>
<path d="M10.0002 23.2001C9.03023 23.2001 8.24023 22.4101 8.24023 21.4401C8.24023 20.4701 9.03023 19.6801 10.0002 19.6801C10.9702 19.6801 11.7602 20.4701 11.7602 21.4401C11.7602 22.4101 10.9702 23.2001 10.0002 23.2001ZM10.0002 20.8601C9.68023 20.8601 9.41023 21.1201 9.41023 21.4501C9.41023 21.7801 9.67023 22.0401 10.0002 22.0401C10.3302 22.0401 10.5902 21.7801 10.5902 21.4501C10.5902 21.1201 10.3302 20.8601 10.0002 20.8601Z" fill="#090909"></path>
</svg>