<svg width="30" height="30" viewBox="0 0 30 30" fill="none" xmlns="http://www.w3.org/2000/svg">
<g clip-path="url(#clip0_981_30182)">
<path d="M28.2422 0H1.75781C0.788555 0 0 0.788555 0 1.75781V28.2422C0 29.2114 0.788555 30 1.75781 30H28.2422C29.2114 30 30 29.2114 30 28.2422V1.75781C30 0.788555 29.2114 0 28.2422 0ZM28.8281 28.2422C28.8281 28.5653 28.5653 28.8281 28.2422 28.8281H1.75781C1.43473 28.8281 1.17188 28.5653 1.17188 28.2422V1.75781C1.17188 1.43473 1.43473 1.17188 1.75781 1.17188H28.2422C28.5653 1.17188 28.8281 1.43473 28.8281 1.75781V28.2422Z" fill="#090909"></path>
<path d="M15 2.69531C8.2152 2.69531 2.69531 8.2152 2.69531 15C3.37119 31.3239 26.6313 31.3191 27.3047 14.9999C27.3047 8.2152 21.7848 2.69531 15 2.69531ZM15 26.1328C8.86137 26.1328 3.86719 21.1386 3.86719 15C4.47873 0.230801 25.5235 0.235137 26.1328 15.0001C26.1328 21.1386 21.1386 26.1328 15 26.1328Z" fill="#090909"></path>
<path d="M15 5.03906C9.50754 5.03906 5.03906 9.50754 5.03906 15C5.58621 28.2146 24.4158 28.2107 24.9609 14.9999C24.9609 9.50754 20.4925 5.03906 15 5.03906ZM16.8686 21.4056C16.9934 22.0347 16.8451 22.7007 16.4814 23.1437C15.8723 23.9677 14.119 23.964 13.512 23.1448C13.1515 22.7057 13.0057 22.0393 13.1314 21.4056L13.233 20.8938C14.343 21.2367 15.6571 21.2367 16.7671 20.8938L16.8686 21.4056ZM15 19.9805C14.4636 19.9805 13.9468 19.8953 13.4624 19.7377L13.9835 17.1116C14.5907 17.4184 15.4093 17.4184 16.0165 17.1116L16.5376 19.7377C16.0532 19.8953 15.5363 19.9805 15 19.9805ZM10.0195 15C10.0195 14.4636 10.1047 13.9468 10.2623 13.4624L12.8883 13.9835C12.5815 14.5907 12.5815 15.4094 12.8883 16.0165L10.2623 16.5376C10.1047 16.0532 10.0195 15.5364 10.0195 15ZM9.10623 16.7671L8.59441 16.8686C7.96529 16.9934 7.29937 16.845 6.85641 16.4814C6.0324 15.8723 6.03609 14.119 6.85529 13.512C7.29434 13.1515 7.96061 13.0057 8.59441 13.1314L9.10623 13.2329C8.76334 14.3429 8.76334 15.6571 9.10623 16.7671ZM13.1314 8.59441C13.0066 7.96535 13.1549 7.29937 13.5186 6.85641C14.1277 6.03234 15.881 6.03609 16.488 6.85523C16.8485 7.29428 16.9943 7.96072 16.8686 8.59441L16.767 9.10623C15.657 8.7634 14.3429 8.76334 13.2329 9.10623L13.1314 8.59441ZM15 10.0195C15.5364 10.0195 16.0532 10.1047 16.5377 10.2623L16.0166 12.8884C15.4094 12.5816 14.5907 12.5816 13.9835 12.8884L13.4624 10.2623C13.9468 10.1047 14.4636 10.0195 15 10.0195ZM13.8281 15C13.8281 14.3538 14.3538 13.8281 15 13.8281C16.5547 13.8925 16.5543 16.1077 15 16.1719C14.3538 16.1719 13.8281 15.6462 13.8281 15ZM17.631 10.7727C18.2768 11.1761 18.8239 11.7232 19.2273 12.369L17.2359 12.7641L17.631 10.7727ZM12.7641 12.7641L10.7727 12.369C11.1761 11.7232 11.7232 11.1761 12.369 10.7727L12.7641 12.7641ZM12.7641 17.2359L12.369 19.2273C11.7232 18.8239 11.1761 18.2768 10.7727 17.631L12.7641 17.2359ZM17.2359 17.2359L19.2273 17.631C18.8239 18.2768 18.2768 18.8239 17.631 19.2273L17.2359 17.2359ZM17.1116 16.0165C17.4184 15.4093 17.4184 14.5907 17.1116 13.9835L19.7376 13.4623C20.0595 14.4221 20.0595 15.5778 19.7376 16.5376L17.1116 16.0165ZM20.8938 13.2329L21.4056 13.1314C22.6608 12.8927 23.8013 13.64 23.7598 15C23.7598 15.6523 23.5529 16.1529 23.1448 16.488C22.7057 16.8484 22.0394 16.9944 21.4055 16.8686L20.8937 16.7671C21.2366 15.6571 21.2366 14.3429 20.8938 13.2329ZM23.3537 12.2656C22.7089 11.9383 21.933 11.832 21.1775 11.9819L20.4401 12.1282C19.8614 11.0364 18.9636 10.1385 17.8717 9.55986L18.018 8.82246C18.1682 8.06549 18.0646 7.29088 17.7418 6.64869C20.389 7.52004 22.4847 9.61734 23.3537 12.2656ZM12.2656 6.64635C11.9383 7.29111 11.832 8.06695 11.982 8.82252L12.1283 9.55992C11.0364 10.1386 10.1386 11.0364 9.55992 12.1283L8.82246 11.982C8.06549 11.8317 7.29088 11.9354 6.64875 12.2582C7.52004 9.61096 9.61734 7.51529 12.2656 6.64635ZM6.64635 17.7344C7.29562 18.0667 8.0925 18.1657 8.82246 18.018L9.55992 17.8717C10.1386 18.9636 11.0364 19.8614 12.1283 20.4401L11.982 21.1775C11.8317 21.9345 11.9354 22.7091 12.2582 23.3512C9.61102 22.48 7.51535 20.3827 6.64635 17.7344ZM17.7343 23.3537C18.0616 22.7089 18.168 21.933 18.018 21.1775L17.8717 20.4401C18.9636 19.8614 19.8614 18.9636 20.4401 17.8717L21.1775 18.018C21.9057 18.1656 22.7038 18.0703 23.3513 17.7417C22.48 20.389 20.3827 22.4847 17.7343 23.3537Z" fill="#090909"></path>
<path d="M4.10156 5.85943C5.07082 5.85943 5.85938 5.07088 5.85938 4.10162C5.76281 1.76965 2.43996 1.77035 2.34375 4.10162C2.34375 5.07088 3.1323 5.85943 4.10156 5.85943ZM4.10156 3.51568C4.42465 3.51568 4.6875 3.77854 4.6875 4.10162C4.65533 4.87893 3.54768 4.87875 3.51562 4.10162C3.51562 3.77854 3.77848 3.51568 4.10156 3.51568Z" fill="#090909"></path>
<path d="M4.10156 24.1406C3.1323 24.1406 2.34375 24.9292 2.34375 25.8984C2.44031 28.2304 5.76322 28.2297 5.85943 25.8984C5.85938 24.9292 5.07082 24.1406 4.10156 24.1406ZM4.10156 26.4844C3.77848 26.4844 3.51562 26.2215 3.51562 25.8984C3.54779 25.1211 4.65545 25.1214 4.68756 25.8984C4.6875 26.2215 4.42465 26.4844 4.10156 26.4844Z" fill="#090909"></path>
<path d="M25.8984 24.1406C24.9292 24.1406 24.1406 24.9292 24.1406 25.8984C24.2372 28.2304 27.56 28.2297 27.6562 25.8984C27.6562 24.9292 26.8677 24.1406 25.8984 24.1406ZM25.8984 26.4844C25.5754 26.4844 25.3125 26.2215 25.3125 25.8984C25.3447 25.1211 26.4523 25.1214 26.4844 25.8984C26.4844 26.2215 26.2215 26.4844 25.8984 26.4844Z" fill="#090909"></path>
<path d="M25.8984 2.34375C24.9292 2.34375 24.1406 3.1323 24.1406 4.10156C24.2372 6.43354 27.56 6.43283 27.6562 4.10156C27.6562 3.1323 26.8677 2.34375 25.8984 2.34375ZM25.8984 4.6875C25.5754 4.6875 25.3125 4.42465 25.3125 4.10156C25.3447 3.32426 26.4523 3.32449 26.4844 4.10156C26.4844 4.42465 26.2215 4.6875 25.8984 4.6875Z" fill="#090909"></path>
</g>
<defs>
<clipPath id="clip0_981_30182">
<rect width="30" height="30" fill="white"></rect>
</clipPath>
</defs>
</svg>