<svg width="30" height="30" viewBox="0 0 30 30" fill="none" xmlns="http://www.w3.org/2000/svg">
<g clip-path="url(#clip0_981_30170)">
<path d="M29.3172 11.5908C29.6941 11.5908 29.9991 11.2858 29.9991 10.9089C29.9991 10.5321 29.6941 10.2272 29.3172 10.2272H27.2718V7.49986H29.3172C29.6941 7.49986 29.9991 7.1949 29.9991 6.81802C29.9991 6.44115 29.6941 6.13625 29.3172 6.13625H27.2718V5.45441C27.2718 3.95029 26.0487 2.72711 24.5445 2.72711H23.8627V0.681654C23.8627 0.304843 23.5578 -0.00012207 23.1809 -0.00012207C22.804 -0.00012207 22.499 0.304843 22.499 0.681718V2.72717H19.7717V0.681718C19.7717 0.304843 19.4668 -0.00012207 19.09 -0.00012207C18.7132 -0.00012207 18.4081 0.304843 18.4081 0.681718V2.72717H15.6808V0.681718C15.6808 0.304843 15.3759 -0.00012207 14.9991 -0.00012207C14.6222 -0.00012207 14.3172 0.304843 14.3172 0.681718V2.72717H11.5899V0.681718C11.5899 0.304843 11.285 -0.00012207 10.9081 -0.00012207C10.5313 -0.00012207 10.2263 0.304843 10.2263 0.681718V2.72717H7.49901V0.681718C7.49901 0.304843 7.19404 -0.00012207 6.81723 -0.00012207C6.44042 -0.00012207 6.13539 0.304843 6.13539 0.681718V2.72717H5.45355C3.94944 2.72717 2.72626 3.95029 2.72626 5.45447V6.13625H0.680799C0.303988 6.13625 -0.000976562 6.44121 -0.000976562 6.81809C-0.000976562 7.19496 0.303988 7.49993 0.680863 7.49993H2.72632V10.2272H0.680863C0.303988 10.2272 -0.000976562 10.5321 -0.000976562 10.909C-0.000976562 11.2859 0.303988 11.5908 0.680863 11.5908H2.72632V14.3181H0.680863C0.303988 14.3181 -0.000976562 14.623 -0.000976562 14.9999C-0.000976562 15.3768 0.303988 15.6817 0.680863 15.6817H2.72632V18.409H0.680863C0.303988 18.409 -0.000976562 18.7139 -0.000976562 19.0908C-0.000976562 19.4677 0.303988 19.7727 0.680863 19.7727H2.72632V22.4999H0.680863C0.303988 22.4999 -0.000976562 22.8049 -0.000976562 23.1817C-0.000976562 23.5586 0.303988 23.8636 0.680863 23.8636H2.72632V24.5453C2.72632 26.0495 3.94944 27.2726 5.45362 27.2726H6.13539V29.3181C6.13539 29.695 6.44036 29.9999 6.81723 29.9999C7.19411 29.9999 7.49907 29.695 7.49907 29.3181V27.2726H10.2263V29.3181C10.2263 29.695 10.5313 29.9999 10.9081 29.9999C11.285 29.9999 11.59 29.695 11.59 29.3181V27.2726H14.3172V29.3181C14.3172 29.695 14.6222 29.9999 14.9991 29.9999C15.3759 29.9999 15.6809 29.695 15.6809 29.3181V27.2726H18.4081V29.3181C18.4081 29.695 18.7131 29.9999 19.09 29.9999C19.4668 29.9999 19.7718 29.695 19.7718 29.3181V27.2726H22.499V29.3181C22.499 29.695 22.804 29.9999 23.1809 29.9999C23.5578 29.9999 23.8627 29.695 23.8627 29.3181V27.2726H24.5445C26.0486 27.2726 27.2718 26.0495 27.2718 24.5453V23.8635H29.3172C29.6941 23.8635 29.9991 23.5585 29.9991 23.1817C29.9991 22.8048 29.6941 22.4998 29.3172 22.4998H27.2718V19.7725H29.3172C29.6941 19.7725 29.9991 19.4676 29.9991 19.0907C29.9991 18.7138 29.6941 18.409 29.3172 18.409H27.2718V15.6817H29.3172C29.6941 15.6817 29.9991 15.3767 29.9991 14.9998C29.9991 14.623 29.6941 14.3181 29.3172 14.3181H27.2718V11.5908H29.3172ZM25.9081 24.5453C25.9081 25.2971 25.2962 25.909 24.5445 25.909H5.45355C4.70185 25.909 4.08994 25.2971 4.08994 24.5453V5.45441C4.08994 4.7027 4.70185 4.09079 5.45355 4.09079H24.5445C25.2962 4.09079 25.9081 4.7027 25.9081 5.45441V24.5453Z" fill="#090909"></path>
<path d="M23.8632 5.45435H6.13594C5.75907 5.45435 5.4541 5.75931 5.4541 6.13619V23.8634C5.4541 24.2403 5.75907 24.5453 6.13594 24.5453H23.8632C24.2401 24.5453 24.545 24.2403 24.545 23.8634V6.13619C24.545 5.75931 24.2401 5.45435 23.8632 5.45435ZM23.1814 23.1817H6.81778V6.81803H23.1814V23.1817Z" fill="#090909"></path>
</g>
<defs>
<clipPath id="clip0_981_30170">
<rect width="30" height="30" fill="white"></rect>
</clipPath>
</defs>
</svg>