<svg width="30" height="30" viewBox="0 0 30 30" fill="none" xmlns="http://www.w3.org/2000/svg">
<g clip-path="url(#clip0_268_9208)">
<path d="M3.50016 5.49984H0.500156C0.224063 5.49984 0 5.27578 0 5.00016C0 4.72406 0.224063 4.5 0.500156 4.5H3.50016C3.77625 4.5 4.00031 4.72406 4.00031 5.00016C3.99984 5.27578 3.77578 5.49984 3.50016 5.49984Z" fill="#090909"></path>
<path d="M3.50016 17.4998C3.22406 17.4998 3 17.2758 3 16.9997V4.99969C3 4.72406 3.22406 4.5 3.50016 4.5C3.77625 4.5 4.00031 4.72406 4.00031 5.00016V17.0002C3.99984 17.2758 3.77578 17.4998 3.50016 17.4998Z" fill="#090909"></path>
<path d="M3.50031 12.9998H1.50016C1.22406 12.9998 1 12.7758 1 12.4997V9.49967C1 9.22357 1.22406 8.99951 1.50016 8.99951H3.50031C3.77641 8.99951 4.00047 9.22357 4.00047 9.49967V12.4997C4 12.7758 3.77594 12.9998 3.50031 12.9998ZM2.00031 12H3.00016V9.99982H2.00031V12Z" fill="#090909"></path>
<path d="M3.50031 18.9999H1.50016C1.22406 18.9999 1 18.7758 1 18.4997V16.5C1 16.2239 1.22406 15.9999 1.50016 15.9999H3.50031C3.77641 15.9999 4.00047 16.2239 4.00047 16.5V18.5002C4 18.7758 3.77594 18.9999 3.50031 18.9999ZM2.00031 18H3.00016V17.0002H2.00031V18Z" fill="#090909"></path>
<path d="M9.00016 25.4999C8.72406 25.4999 8.5 25.2759 8.5 24.9998V23.4998C8.5 23.2237 8.72406 22.9996 9.00016 22.9996C9.27625 22.9996 9.50031 23.2237 9.50031 23.4998V24.9998C9.50031 25.2759 9.27625 25.4999 9.00016 25.4999Z" fill="#090909"></path>
<path d="M11 25.5H7.00016C6.72406 25.5 6.5 25.2759 6.5 24.9998V21.4997C6.5 21.2236 6.72406 20.9995 7.00016 20.9995H11C11.2761 20.9995 11.5002 21.2236 11.5002 21.4997V24.9998C11.4997 25.2759 11.2756 25.5 11 25.5ZM7.49984 24.5001H10.4998V22.0003H7.49984V24.5001Z" fill="#090909"></path>
<path d="M3.50031 8.00019H1.50016C1.22406 8.00019 1 7.77613 1 7.50003C1 7.22394 1.22406 6.99988 1.50016 6.99988H3.50031C3.77641 6.99988 4.00047 7.22394 4.00047 7.50003C4.00047 7.77613 3.77594 8.00019 3.50031 8.00019Z" fill="#090909"></path>
<path d="M3.50031 14.9999H1.50016C1.22406 14.9999 1 14.7759 1 14.4998C1 14.2237 1.22406 13.9996 1.50016 13.9996H3.50031C3.77641 13.9996 4.00047 14.2237 4.00047 14.4998C4 14.7759 3.77594 14.9999 3.50031 14.9999Z" fill="#090909"></path>
<path d="M27.4997 21.9999H5.49984C4.12125 21.9999 3 20.8782 3 19.5V7.50003C3 7.22394 3.22406 6.99988 3.50016 6.99988H27.4997C28.8787 6.99988 30 8.1216 30 9.49972V19.5C30 20.8786 28.8783 21.9999 27.4997 21.9999ZM3.99984 8.00019V19.5C3.99984 20.3269 4.67297 21 5.49984 21H27.4992C28.3266 21 28.9997 20.3269 28.9997 19.5V9.50019C28.9997 8.67332 28.3266 8.00019 27.4992 8.00019H3.99984Z" fill="#090909"></path>
<path d="M22.4998 20.0002C19.4675 20.0002 17 17.5327 17 14.5003C17 11.468 19.4675 9 22.4998 9C25.5322 9 27.9997 11.4675 27.9997 14.4998C27.9997 17.5322 25.5322 20.0002 22.4998 20.0002ZM22.4998 9.99984C20.0183 9.99984 17.9998 12.0187 17.9998 14.4998C17.9998 16.9809 20.0183 18.9998 22.4998 18.9998C24.9814 18.9998 26.9998 16.9809 26.9998 14.4998C26.9998 12.0187 24.9814 9.99984 22.4998 9.99984Z" fill="#090909"></path>
<path d="M22.5002 16.4999C21.3972 16.4999 20.5 15.6028 20.5 14.4998C20.5 13.3968 21.3972 12.4996 22.5002 12.4996C23.6031 12.4996 24.5003 13.3968 24.5003 14.4998C24.5003 15.6028 23.6031 16.4999 22.5002 16.4999ZM22.5002 13.4999C21.9484 13.4999 21.5003 13.9485 21.5003 14.4998C21.5003 15.0515 21.9489 15.4996 22.5002 15.4996C23.0514 15.4996 23.5 15.051 23.5 14.4998C23.5 13.9485 23.0519 13.4999 22.5002 13.4999Z" fill="#090909"></path>
<path d="M22.5002 13.5C22.2241 13.5 22 13.276 22 12.9999C22 11.9227 20.6256 10.9997 19.5002 10.9997C19.2241 10.9997 19 10.7756 19 10.4995C19 10.2235 19.2241 9.99939 19.5002 9.99939C21.1187 9.99939 23.0003 11.31 23.0003 12.9994C23.0003 13.276 22.7762 13.5 22.5002 13.5Z" fill="#090909"></path>
<path d="M25.5002 18.9998C23.8816 18.9998 22 17.6892 22 15.9998C22 15.7237 22.2241 15.4996 22.5002 15.4996C22.7763 15.4996 23.0003 15.7237 23.0003 15.9998C23.0003 17.077 24.3747 17.9999 25.5002 17.9999C25.7763 17.9999 26.0003 18.224 26.0003 18.5001C26.0003 18.7757 25.7763 18.9998 25.5002 18.9998Z" fill="#090909"></path>
<path d="M18.5002 17.9999C18.2241 17.9999 18 17.7759 18 17.4998C18 15.8812 19.3106 13.9996 21 13.9996C21.2761 13.9996 21.5002 14.2237 21.5002 14.4998C21.5002 14.7759 21.2761 14.9999 21 14.9999C19.9228 14.9999 18.9998 16.3748 18.9998 17.4998C18.9998 17.7759 18.7758 17.9999 18.5002 17.9999Z" fill="#090909"></path>
<path d="M24.0002 14.9999C23.7241 14.9999 23.5 14.7759 23.5 14.4998C23.5 14.2237 23.7241 13.9996 24.0002 13.9996C25.0773 13.9996 26.0003 12.6248 26.0003 11.4998C26.0003 11.2237 26.2244 10.9996 26.5005 10.9996C26.7766 10.9996 27.0006 11.2237 27.0006 11.4998C27.0002 13.1184 25.6895 14.9999 24.0002 14.9999Z" fill="#090909"></path>
<path d="M17.5508 14.2932C17.4229 14.2932 17.2949 14.2439 17.1974 14.1464C17.0019 13.9514 17.0019 13.635 17.1974 13.4396C17.7538 12.8832 18.5905 12.4894 19.4352 12.3872C20.3891 12.2696 21.2272 12.5194 21.7935 13.0861C21.9885 13.2816 21.9885 13.598 21.7935 13.793C21.598 13.9885 21.2816 13.9885 21.0866 13.793C20.7472 13.4536 20.1899 13.3032 19.5561 13.3796C18.9257 13.456 18.3088 13.7429 17.9052 14.1464C17.8068 14.2439 17.6783 14.2932 17.5508 14.2932Z" fill="#090909"></path>
<path d="M25.1156 16.6411C24.3496 16.6411 23.6831 16.3903 23.2078 15.9141C23.0128 15.7186 23.0128 15.4022 23.2078 15.2072C23.4032 15.0117 23.7196 15.0117 23.9146 15.2072C24.254 15.5466 24.8118 15.698 25.4451 15.6206C26.0756 15.5442 26.6925 15.2573 27.0961 14.8538C27.2915 14.6583 27.6079 14.6583 27.8029 14.8538C27.9984 15.0488 27.9984 15.3652 27.8029 15.5606C27.2465 16.117 26.4098 16.5108 25.5651 16.613C25.4123 16.6322 25.2618 16.6411 25.1156 16.6411Z" fill="#090909"></path>
<path d="M21.7931 19.9495C21.6651 19.9495 21.5372 19.9003 21.4397 19.8028C20.295 18.6581 19.8918 16.401 21.0862 15.2067C21.2817 15.0112 21.5981 15.0112 21.7931 15.2067C21.9886 15.4017 21.9886 15.7181 21.7931 15.9135C21.0314 16.6753 21.3506 18.2999 22.1465 19.0954C22.342 19.2909 22.342 19.6068 22.1465 19.8023C22.049 19.9007 21.9211 19.9495 21.7931 19.9495Z" fill="#090909"></path>
<path d="M23.5605 13.9397C23.4325 13.9397 23.3046 13.8905 23.2071 13.793C23.0116 13.598 23.0116 13.2816 23.2071 13.0861C23.9688 12.3244 23.6496 10.6997 22.8536 9.90426C22.6582 9.70879 22.6582 9.39285 22.8536 9.19738C23.0486 9.00191 23.3655 9.00191 23.5605 9.19738C24.7052 10.3421 25.1083 12.5991 23.9139 13.7935C23.8169 13.8905 23.6885 13.9397 23.5605 13.9397Z" fill="#090909"></path>
<path d="M24.9998 25.5H14.0002C13.7241 25.5 13.5 25.2759 13.5 24.9998V21.4997C13.5 21.2236 13.7241 20.9995 14.0002 20.9995H25.0003C25.2764 20.9995 25.5005 21.2236 25.5005 21.4997V24.9998C25.5 25.2759 25.2759 25.5 24.9998 25.5ZM14.4998 24.5001H24.4997V22.0003H14.4998V24.5001Z" fill="#090909"></path>
<path d="M16.5002 25.4999C16.2241 25.4999 16 25.2759 16 24.9998V23.4998C16 23.2237 16.2241 22.9996 16.5002 22.9996C16.7763 22.9996 17.0003 23.2237 17.0003 23.4998V24.9998C17.0003 25.2759 16.7763 25.4999 16.5002 25.4999Z" fill="#090909"></path>
<path d="M22.5002 25.4999C22.2241 25.4999 22 25.2759 22 24.9998V23.4998C22 23.2237 22.2241 22.9996 22.5002 22.9996C22.7763 22.9996 23.0003 23.2237 23.0003 23.4998V24.9998C23.0003 25.2759 22.7763 25.4999 22.5002 25.4999Z" fill="#090909"></path>
<path d="M20.5002 25.4999C20.2241 25.4999 20 25.2759 20 24.9998V23.4998C20 23.2237 20.2241 22.9996 20.5002 22.9996C20.7763 22.9996 21.0003 23.2237 21.0003 23.4998V24.9998C21.0003 25.2759 20.7763 25.4999 20.5002 25.4999Z" fill="#090909"></path>
<path d="M18.5002 25.4999C18.2241 25.4999 18 25.2759 18 24.9998V23.4998C18 23.2237 18.2241 22.9996 18.5002 22.9996C18.7762 22.9996 19.0003 23.2237 19.0003 23.4998V24.9998C18.9998 25.2759 18.7758 25.4999 18.5002 25.4999Z" fill="#090909"></path>
<path d="M17.4998 21.9999C17.3719 21.9999 17.2439 21.9506 17.1464 21.8531L13.2928 18H3.50016C3.22406 18 3 17.776 3 17.4999V11.4999C3 11.2238 3.22406 10.9997 3.50016 10.9997H13.2933L17.1469 7.14611C17.3419 6.95064 17.6588 6.95064 17.8538 7.14611C18.0492 7.34158 18.0492 7.65752 17.8538 7.85299L13.8539 11.8528C13.7602 11.9475 13.6327 12 13.5 12H3.99984V17.0002H13.5C13.6327 17.0002 13.7602 17.0527 13.8534 17.1469L17.8533 21.1467C18.0488 21.3422 18.0488 21.6581 17.8533 21.8536C17.7558 21.9511 17.6278 21.9999 17.4998 21.9999Z" fill="#090909"></path>
<path d="M13.5003 14.9999H11.5002C11.2241 14.9999 11 14.7759 11 14.4998C11 14.2237 11.2241 13.9996 11.5002 13.9996H13.5003C13.7764 13.9996 14.0005 14.2237 14.0005 14.4998C14.0005 14.7759 13.7764 14.9999 13.5003 14.9999Z" fill="#090909"></path>
<path d="M9 14.9999H3.50016C3.22406 14.9999 3 14.7759 3 14.4998C3 14.2237 3.22406 13.9996 3.50016 13.9996H9C9.27609 13.9996 9.50016 14.2237 9.50016 14.4998C9.50016 14.7759 9.27609 14.9999 9 14.9999Z" fill="#090909"></path>
</g>
<defs>
<clipPath id="clip0_268_9208">
<rect width="30" height="30" fill="white"></rect>
</clipPath>
</defs>
</svg>