<svg width="30" height="30" viewBox="0 0 30 30" fill="none" xmlns="http://www.w3.org/2000/svg">
<g clip-path="url(#clip0_268_9338)">
<path d="M3 17.5H4.5C4.76522 17.5 5.01957 17.3946 5.20711 17.2071C5.39464 17.0196 5.5 16.7652 5.5 16.5V15.5C5.5 15.2348 5.39464 14.9804 5.20711 14.7929C5.01957 14.6054 4.76522 14.5 4.5 14.5H3C2.73478 14.5 2.48043 14.6054 2.29289 14.7929C2.10536 14.9804 2 15.2348 2 15.5V16.5C2 16.7652 2.10536 17.0196 2.29289 17.2071C2.48043 17.3946 2.73478 17.5 3 17.5ZM3 15.5H4.5V16.5H3V15.5Z" fill="#090909"></path>
<path d="M28 12.5H2C1.46957 12.5 0.960859 12.7107 0.585786 13.0858C0.210714 13.4609 0 13.9696 0 14.5L0 25.5C0 26.0304 0.210714 26.5391 0.585786 26.9142C0.960859 27.2893 1.46957 27.5 2 27.5H16.26L17.66 29.2455C17.8458 29.4813 18.0828 29.6717 18.3531 29.8024C18.6234 29.9331 18.9198 30.0007 19.22 30H28C28.5304 30 29.0391 29.7893 29.4142 29.4142C29.7893 29.0391 30 28.5304 30 28V14.5C30 13.9696 29.7893 13.4609 29.4142 13.0858C29.0391 12.7107 28.5304 12.5 28 12.5ZM29 28C29 28.2652 28.8946 28.5196 28.7071 28.7071C28.5196 28.8946 28.2652 29 28 29H19.22C19.0698 29.0005 18.9216 28.9667 18.7864 28.9013C18.6512 28.8359 18.5328 28.7406 18.44 28.6225L16.89 26.6875C16.8432 26.629 16.7838 26.5818 16.7163 26.5494C16.6488 26.5169 16.5749 26.5 16.5 26.5H2C1.73478 26.5 1.48043 26.3946 1.29289 26.2071C1.10536 26.0196 1 25.7652 1 25.5V14.5C1 14.2348 1.10536 13.9804 1.29289 13.7929C1.48043 13.6054 1.73478 13.5 2 13.5H28C28.2652 13.5 28.5196 13.6054 28.7071 13.7929C28.8946 13.9804 29 14.2348 29 14.5V28Z" fill="#090909"></path>
<path d="M7 20.5V19.5C7 19.2348 6.89464 18.9804 6.70711 18.7929C6.51957 18.6054 6.26522 18.5 6 18.5H3C2.73478 18.5 2.48043 18.6054 2.29289 18.7929C2.10536 18.9804 2 19.2348 2 19.5V20.5C2 20.7652 2.10536 21.0196 2.29289 21.2071C2.48043 21.3946 2.73478 21.5 3 21.5H6C6.26522 21.5 6.51957 21.3946 6.70711 21.2071C6.89464 21.0196 7 20.7652 7 20.5ZM3 20.5V19.5H6V20.5H3Z" fill="#090909"></path>
<path d="M4.5 22.5H3C2.73478 22.5 2.48043 22.6054 2.29289 22.7929C2.10536 22.9804 2 23.2348 2 23.5V24.5C2 24.7652 2.10536 25.0196 2.29289 25.2071C2.48043 25.3946 2.73478 25.5 3 25.5H4.5C4.76522 25.5 5.01957 25.3946 5.20711 25.2071C5.39464 25.0196 5.5 24.7652 5.5 24.5V23.5C5.5 23.2348 5.39464 22.9804 5.20711 22.7929C5.01957 22.6054 4.76522 22.5 4.5 22.5ZM3 24.5V23.5H4.5V24.5H3Z" fill="#090909"></path>
<path d="M7.5 17.5H9C9.26522 17.5 9.51957 17.3946 9.70711 17.2071C9.89464 17.0196 10 16.7652 10 16.5V15.5C10 15.2348 9.89464 14.9804 9.70711 14.7929C9.51957 14.6054 9.26522 14.5 9 14.5H7.5C7.23478 14.5 6.98043 14.6054 6.79289 14.7929C6.60536 14.9804 6.5 15.2348 6.5 15.5V16.5C6.5 16.7652 6.60536 17.0196 6.79289 17.2071C6.98043 17.3946 7.23478 17.5 7.5 17.5ZM7.5 15.5H9V16.5H7.5V15.5Z" fill="#090909"></path>
<path d="M11.5 20.5V19.5C11.5 19.2348 11.3946 18.9804 11.2071 18.7929C11.0196 18.6054 10.7652 18.5 10.5 18.5H9C8.73478 18.5 8.48043 18.6054 8.29289 18.7929C8.10536 18.9804 8 19.2348 8 19.5V20.5C8 20.7652 8.10536 21.0196 8.29289 21.2071C8.48043 21.3946 8.73478 21.5 9 21.5H10.5C10.7652 21.5 11.0196 21.3946 11.2071 21.2071C11.3946 21.0196 11.5 20.7652 11.5 20.5ZM9 20.5V19.5H10.5V20.5H9Z" fill="#090909"></path>
<path d="M12.5 19.5V20.5C12.5 20.7652 12.6054 21.0196 12.7929 21.2071C12.9804 21.3946 13.2348 21.5 13.5 21.5H15C15.2652 21.5 15.5196 21.3946 15.7071 21.2071C15.8946 21.0196 16 20.7652 16 20.5V19.5C16 19.2348 15.8946 18.9804 15.7071 18.7929C15.5196 18.6054 15.2652 18.5 15 18.5H13.5C13.2348 18.5 12.9804 18.6054 12.7929 18.7929C12.6054 18.9804 12.5 19.2348 12.5 19.5ZM15 20.5H13.5V19.5H15V20.5Z" fill="#090909"></path>
<path d="M20.5 20.5V19.5C20.5 19.2348 20.3946 18.9804 20.2071 18.7929C20.0196 18.6054 19.7652 18.5 19.5 18.5H18C17.7348 18.5 17.4804 18.6054 17.2929 18.7929C17.1054 18.9804 17 19.2348 17 19.5V20.5C17 20.7652 17.1054 21.0196 17.2929 21.2071C17.4804 21.3946 17.7348 21.5 18 21.5H19.5C19.7652 21.5 20.0196 21.3946 20.2071 21.2071C20.3946 21.0196 20.5 20.7652 20.5 20.5ZM18 20.5V19.5H19.5V20.5H18Z" fill="#090909"></path>
<path d="M9 22.5H7.5C7.23478 22.5 6.98043 22.6054 6.79289 22.7929C6.60536 22.9804 6.5 23.2348 6.5 23.5V24.5C6.5 24.7652 6.60536 25.0196 6.79289 25.2071C6.98043 25.3946 7.23478 25.5 7.5 25.5H9C9.26522 25.5 9.51957 25.3946 9.70711 25.2071C9.89464 25.0196 10 24.7652 10 24.5V23.5C10 23.2348 9.89464 22.9804 9.70711 22.7929C9.51957 22.6054 9.26522 22.5 9 22.5ZM7.5 24.5V23.5H9V24.5H7.5Z" fill="#090909"></path>
<path d="M12 17.5H13.5C13.7652 17.5 14.0196 17.3946 14.2071 17.2071C14.3946 17.0196 14.5 16.7652 14.5 16.5V15.5C14.5 15.2348 14.3946 14.9804 14.2071 14.7929C14.0196 14.6054 13.7652 14.5 13.5 14.5H12C11.7348 14.5 11.4804 14.6054 11.2929 14.7929C11.1054 14.9804 11 15.2348 11 15.5V16.5C11 16.7652 11.1054 17.0196 11.2929 17.2071C11.4804 17.3946 11.7348 17.5 12 17.5ZM12 15.5H13.5V16.5H12V15.5Z" fill="#090909"></path>
<path d="M18 22.5H12C11.7348 22.5 11.4804 22.6054 11.2929 22.7929C11.1054 22.9804 11 23.2348 11 23.5V24.5C11 24.7652 11.1054 25.0196 11.2929 25.2071C11.4804 25.3946 11.7348 25.5 12 25.5H18C18.2652 25.5 18.5196 25.3946 18.7071 25.2071C18.8946 25.0196 19 24.7652 19 24.5V23.5C19 23.2348 18.8946 22.9804 18.7071 22.7929C18.5196 22.6054 18.2652 22.5 18 22.5ZM12 24.5V23.5H18V24.5H12Z" fill="#090909"></path>
<path d="M16.5 17.5H18C18.2652 17.5 18.5196 17.3946 18.7071 17.2071C18.8946 17.0196 19 16.7652 19 16.5V15.5C19 15.2348 18.8946 14.9804 18.7071 14.7929C18.5196 14.6054 18.2652 14.5 18 14.5H16.5C16.2348 14.5 15.9804 14.6054 15.7929 14.7929C15.6054 14.9804 15.5 15.2348 15.5 15.5V16.5C15.5 16.7652 15.6054 17.0196 15.7929 17.2071C15.9804 17.3946 16.2348 17.5 16.5 17.5ZM16.5 15.5H18V16.5H16.5V15.5Z" fill="#090909"></path>
<path d="M21 17.5H22.5C22.7652 17.5 23.0196 17.3946 23.2071 17.2071C23.3946 17.0196 23.5 16.7652 23.5 16.5V15.5C23.5 15.2348 23.3946 14.9804 23.2071 14.7929C23.0196 14.6054 22.7652 14.5 22.5 14.5H21C20.7348 14.5 20.4804 14.6054 20.2929 14.7929C20.1054 14.9804 20 15.2348 20 15.5V16.5C20 16.7652 20.1054 17.0196 20.2929 17.2071C20.4804 17.3946 20.7348 17.5 21 17.5ZM21 15.5H22.5V16.5H21V15.5Z" fill="#090909"></path>
<path d="M22.5 22.5H21C20.7348 22.5 20.4804 22.6054 20.2929 22.7929C20.1054 22.9804 20 23.2348 20 23.5V24.5C20 24.7652 20.1054 25.0196 20.2929 25.2071C20.4804 25.3946 20.7348 25.5 21 25.5H22.5C22.7652 25.5 23.0196 25.3946 23.2071 25.2071C23.3946 25.0196 23.5 24.7652 23.5 24.5V23.5C23.5 23.2348 23.3946 22.9804 23.2071 22.7929C23.0196 22.6054 22.7652 22.5 22.5 22.5ZM21 24.5V23.5H22.5V24.5H21Z" fill="#090909"></path>
<path d="M27 14.5H25.5C25.2348 14.5 24.9804 14.6054 24.7929 14.7929C24.6054 14.9804 24.5 15.2348 24.5 15.5V16.5C24.5 16.7652 24.6054 17.0196 24.7929 17.2071C24.9804 17.3946 25.2348 17.5 25.5 17.5H27C27.2652 17.5 27.5196 17.3946 27.7071 17.2071C27.8946 17.0196 28 16.7652 28 16.5V15.5C28 15.2348 27.8946 14.9804 27.7071 14.7929C27.5196 14.6054 27.2652 14.5 27 14.5ZM25.5 16.5V15.5H27V16.5H25.5Z" fill="#090909"></path>
<path d="M27 18.5H22.5C22.2348 18.5 21.9804 18.6054 21.7929 18.7929C21.6054 18.9804 21.5 19.2348 21.5 19.5V20.5C21.5 20.7652 21.6054 21.0196 21.7929 21.2071C21.9804 21.3946 22.2348 21.5 22.5 21.5H27C27.2652 21.5 27.5196 21.3946 27.7071 21.2071C27.8946 21.0196 28 20.7652 28 20.5V19.5C28 19.2348 27.8946 18.9804 27.7071 18.7929C27.5196 18.6054 27.2652 18.5 27 18.5ZM22.5 20.5V19.5H27V20.5H22.5Z" fill="#090909"></path>
<path d="M27 22.5H25.5C25.2348 22.5 24.9804 22.6054 24.7929 22.7929C24.6054 22.9804 24.5 23.2348 24.5 23.5V24.5C24.5 24.7652 24.6054 25.0196 24.7929 25.2071C24.9804 25.3946 25.2348 25.5 25.5 25.5H27C27.2652 25.5 27.5196 25.3946 27.7071 25.2071C27.8946 25.0196 28 24.7652 28 24.5V23.5C28 23.2348 27.8946 22.9804 27.7071 22.7929C27.5196 22.6054 27.2652 22.5 27 22.5ZM25.5 24.5V23.5H27V24.5H25.5Z" fill="#090909"></path>
<path d="M20.5 7.5C20.8956 7.5 21.2822 7.3827 21.6111 7.16294C21.94 6.94318 22.1964 6.63082 22.3478 6.26537C22.4991 5.89992 22.5387 5.49778 22.4616 5.10982C22.3844 4.72186 22.1939 4.36549 21.9142 4.08579C21.6345 3.80608 21.2781 3.6156 20.8902 3.53843C20.5022 3.46126 20.1001 3.50087 19.7346 3.65224C19.3692 3.80362 19.0568 4.05996 18.8371 4.38886C18.6173 4.71776 18.5 5.10444 18.5 5.5C18.5 6.03043 18.7107 6.53914 19.0858 6.91421C19.4609 7.28929 19.9696 7.5 20.5 7.5ZM20.5 4.5C20.6978 4.5 20.8911 4.55865 21.0556 4.66853C21.22 4.77841 21.3482 4.93459 21.4239 5.11732C21.4996 5.30004 21.5194 5.50111 21.4808 5.69509C21.4422 5.88907 21.347 6.06726 21.2071 6.20711C21.0673 6.34696 20.8891 6.4422 20.6951 6.48079C20.5011 6.51937 20.3 6.49957 20.1173 6.42388C19.9346 6.34819 19.7784 6.22002 19.6685 6.05557C19.5586 5.89112 19.5 5.69778 19.5 5.5C19.5 5.23478 19.6054 4.98043 19.7929 4.79289C19.9804 4.60536 20.2348 4.5 20.5 4.5Z" fill="#090909"></path>
<path d="M18.5 2.5C18.5 2.36739 18.4473 2.24021 18.3536 2.14645C18.2598 2.05268 18.1326 2 18 2H14C13.8674 2 13.7402 2.05268 13.6464 2.14645C13.5527 2.24021 13.5 2.36739 13.5 2.5C13.5 2.63261 13.5527 2.75979 13.6464 2.85355C13.7402 2.94732 13.8674 3 14 3H18C18.1326 3 18.2598 2.94732 18.3536 2.85355C18.4473 2.75979 18.5 2.63261 18.5 2.5Z" fill="#090909"></path>
<path d="M14 9H18C18.1326 9 18.2598 8.94732 18.3536 8.85355C18.4473 8.75979 18.5 8.63261 18.5 8.5C18.5 8.36739 18.4473 8.24021 18.3536 8.14645C18.2598 8.05268 18.1326 8 18 8H14C13.8674 8 13.7402 8.05268 13.6464 8.14645C13.5527 8.24021 13.5 8.36739 13.5 8.5C13.5 8.63261 13.5527 8.75979 13.6464 8.85355C13.7402 8.94732 13.8674 9 14 9Z" fill="#090909"></path>
<path d="M6 6.00012H9V7.13912C8.84848 7.22619 8.72252 7.35158 8.63476 7.5027C8.547 7.65382 8.50053 7.82537 8.5 8.00012V8.50012C8.50079 9.16292 8.76444 9.79834 9.23311 10.267C9.70178 10.7357 10.3372 10.9993 11 11.0001H19C19.7554 10.9998 20.5027 10.844 21.1952 10.5424C21.8878 10.2407 22.5108 9.79968 23.0255 9.24675C23.5402 8.69383 23.9356 8.04084 24.1869 7.32847C24.4383 6.61611 24.5402 5.85962 24.4865 5.10612C24.3621 3.70084 23.712 2.39428 22.666 1.44764C21.6199 0.501006 20.2552 -0.0159528 18.8445 0.00011969H11C10.3372 0.000913619 9.70178 0.264561 9.23311 0.73323C8.76444 1.2019 8.50079 1.83732 8.5 2.50012V3.00012C8.50053 3.17488 8.547 3.34642 8.63476 3.49754C8.72252 3.64866 8.84848 3.77405 9 3.86112V5.00012H6C5.86739 5.00012 5.74021 5.0528 5.64645 5.14657C5.55268 5.24033 5.5 5.36751 5.5 5.50012C5.5 5.63273 5.55268 5.75991 5.64645 5.85367C5.74021 5.94744 5.86739 6.00012 6 6.00012ZM9.5 8.00012H10.5C10.8559 8.00152 11.2055 7.90696 11.5121 7.72641C11.8188 7.54585 12.0711 7.28597 12.2425 6.97412C12.3274 6.99015 12.4136 6.99885 12.5 7.00012H13.5C13.8091 6.99884 14.1103 6.90208 14.3623 6.72308C14.6144 6.54407 14.805 6.29157 14.908 6.00012H16.5C16.6326 6.00012 16.7598 5.94744 16.8536 5.85367C16.9473 5.75991 17 5.63273 17 5.50012C17 5.36751 16.9473 5.24033 16.8536 5.14657C16.7598 5.0528 16.6326 5.00012 16.5 5.00012H14.908C14.805 4.70867 14.6144 4.45617 14.3623 4.27716C14.1103 4.09816 13.8091 4.0014 13.5 4.00012H12.5C12.4136 4.00139 12.3274 4.01009 12.2425 4.02612C12.0711 3.71427 11.8188 3.45439 11.5121 3.27383C11.2055 3.09328 10.8559 2.99872 10.5 3.00012H9.5V2.50012C9.5 2.1023 9.65804 1.72076 9.93934 1.43946C10.2206 1.15816 10.6022 1.00012 11 1.00012H18.8445C20.0023 0.982959 21.124 1.40359 21.985 2.17786C22.8461 2.95214 23.383 4.02296 23.4885 5.17612C23.533 5.79278 23.45 6.41199 23.2446 6.99514C23.0392 7.57828 22.7158 8.11284 22.2947 8.56548C21.8735 9.01811 21.3636 9.3791 20.7967 9.62594C20.2299 9.87277 19.6183 10.0001 19 10.0001H11C10.6022 10.0001 10.2206 9.84209 9.93934 9.56078C9.65804 9.27948 9.5 8.89795 9.5 8.50012V8.00012ZM11.3745 6.48112C11.2895 6.63878 11.1632 6.77035 11.0091 6.86177C10.8551 6.95319 10.6791 7.00101 10.5 7.00012H10V4.00012H10.5C10.6791 3.99923 10.8551 4.04705 11.0091 4.13847C11.1632 4.22989 11.2895 4.36146 11.3745 4.51912C11.1333 4.78896 11 5.1382 11 5.50012C11 5.86205 11.1333 6.21128 11.3745 6.48112ZM12 5.50012C12 5.36751 12.0527 5.24033 12.1464 5.14657C12.2402 5.0528 12.3674 5.00012 12.5 5.00012H13.5C13.6326 5.00012 13.7598 5.0528 13.8536 5.14657C13.9473 5.24033 14 5.36751 14 5.50012C14 5.63273 13.9473 5.75991 13.8536 5.85367C13.7598 5.94744 13.6326 6.00012 13.5 6.00012H12.5C12.3674 6.00012 12.2402 5.94744 12.1464 5.85367C12.0527 5.75991 12 5.63273 12 5.50012Z" fill="#090909"></path>
</g>
<defs>
<clipPath id="clip0_268_9338">
<rect width="30" height="30" fill="white"></rect>
</clipPath>
</defs>
</svg>