<svg width="31" height="32" viewBox="0 0 31 32" fill="none" xmlns="http://www.w3.org/2000/svg">
<path d="M8.35047 29.2951C8.20047 29.2951 8.05047 29.2351 7.93047 29.1251L5.56047 26.7551C5.33047 26.5251 5.33047 26.1551 5.56047 25.9251L5.91047 25.5751C6.14047 25.3351 6.27047 25.0251 6.27047 24.6951C6.27047 24.3651 6.14047 24.0451 5.91047 23.8151C5.42047 23.3251 4.63047 23.3251 4.14047 23.8151L3.79047 24.1651C3.56047 24.3951 3.19047 24.3951 2.96047 24.1651L1.48047 22.6851C1.16047 22.3651 0.980469 21.9251 0.980469 21.4651C0.980469 21.0051 1.16047 20.5751 1.48047 20.2451L8.89047 12.8351C9.12047 12.6051 9.49047 12.6051 9.72047 12.8351C9.95047 13.0651 9.95047 13.4351 9.72047 13.6651L2.33047 21.0851C2.23047 21.1851 2.17047 21.3251 2.17047 21.4651C2.17047 21.6051 2.23047 21.7451 2.33047 21.8451L3.39047 22.9051C4.34047 22.0251 5.83047 22.0451 6.75047 22.9751C7.21047 23.4351 7.46047 24.0451 7.46047 24.6951C7.46047 25.3151 7.23047 25.8951 6.82047 26.3451L8.77047 28.2951C9.00047 28.5251 9.00047 28.8951 8.77047 29.1251C8.65047 29.2351 8.50047 29.2951 8.35047 29.2951ZM13.2905 9.87505C13.1405 9.87505 12.9905 9.81505 12.8705 9.70505C12.6405 9.47505 12.6405 9.10505 12.8705 8.87505L20.2405 1.49505C20.9105 0.825054 22.0005 0.825054 22.6705 1.49505L24.1505 2.97505C24.3805 3.20505 24.3805 3.57505 24.1505 3.80505L23.8005 4.15505C23.5705 4.38505 23.4405 4.70505 23.4405 5.03505C23.4405 5.36505 23.5705 5.68505 23.8005 5.91505C24.0305 6.14505 24.3505 6.27505 24.6805 6.27505C25.0105 6.27505 25.3305 6.14505 25.5605 5.91505L25.9105 5.56505C26.1405 5.33505 26.5105 5.33505 26.7405 5.56505L29.1105 7.93505C29.3405 8.16505 29.3405 8.53505 29.1105 8.76505C28.8805 8.99505 28.5105 8.99505 28.2805 8.76505L26.3305 6.81505C25.8805 7.23505 25.3005 7.45505 24.6805 7.45505C24.0305 7.45505 23.4205 7.20505 22.9605 6.74505C22.5005 6.28505 22.2505 5.67505 22.2505 5.02505C22.2505 4.37505 22.4805 3.82505 22.8905 3.37505L21.8305 2.31505C21.6205 2.10505 21.2805 2.10505 21.0605 2.31505L13.7005 9.68505C13.5805 9.80505 13.4305 9.85505 13.2805 9.85505L13.2905 9.87505Z" fill="#090909"></path>
<path d="M8.35031 29.295C8.20031 29.295 8.05031 29.235 7.93031 29.125C7.70031 28.895 7.70031 28.525 7.93031 28.295L14.6203 21.605C14.8503 21.375 15.2203 21.375 15.4503 21.605C15.6803 21.835 15.6803 22.205 15.4503 22.435L8.76031 29.125C8.64031 29.245 8.49031 29.295 8.34031 29.295H8.35031Z" fill="#090909"></path>
<path d="M10.2301 31.005C9.98008 31.005 9.72008 30.905 9.53008 30.715L7.94008 29.125C7.71008 28.895 7.71008 28.525 7.94008 28.295C8.17008 28.065 8.54008 28.065 8.77008 28.295L10.2301 29.755L15.3801 24.605L15.1001 24.325C14.8701 24.095 14.8701 23.725 15.1001 23.495C15.3301 23.265 15.7001 23.265 15.9301 23.495L16.3401 23.905C16.5301 24.095 16.6301 24.345 16.6301 24.605C16.6301 24.865 16.5301 25.115 16.3401 25.305L10.9201 30.725C10.7301 30.915 10.4701 31.015 10.2201 31.015L10.2301 31.005Z" fill="#090909"></path>
<path d="M18.5901 22.6351C18.3401 22.6351 18.0801 22.5351 17.8901 22.3451L17.4801 21.9351C17.2501 21.7051 17.2501 21.3351 17.4801 21.1051C17.7101 20.8751 18.0801 20.8751 18.3101 21.1051L18.5901 21.3851L29.7301 10.2351L28.2701 8.77508C28.0401 8.54508 28.0401 8.17508 28.2701 7.94508C28.5001 7.71508 28.8701 7.71508 29.1001 7.94508L30.6901 9.53508C30.8801 9.72508 30.9801 9.96508 30.9801 10.2351C30.9801 10.5051 30.8801 10.7451 30.6901 10.9351L19.2801 22.3451C19.0901 22.5351 18.8301 22.6351 18.5801 22.6351H18.5901Z" fill="#090909"></path>
<path d="M12.2205 29.1751C12.0705 29.1751 11.9205 29.1151 11.8005 29.0051L9.92055 27.1351C9.69055 26.9051 9.69055 26.5351 9.92055 26.3051C10.1505 26.0751 10.5205 26.0751 10.7505 26.3051L12.6305 28.1751C12.8605 28.4051 12.8605 28.7751 12.6305 29.0051C12.5105 29.1251 12.3605 29.1751 12.2105 29.1751H12.2205Z" fill="#090909"></path>
<path d="M28.5807 12.8151C28.4307 12.8151 28.2807 12.7551 28.1607 12.6451L26.2907 10.7651C26.0607 10.5351 26.0607 10.1651 26.2907 9.93507C26.5207 9.70507 26.8907 9.70507 27.1207 9.93507L28.9907 11.8151C29.2207 12.0451 29.2207 12.4151 28.9907 12.6451C28.8707 12.7651 28.7207 12.8151 28.5707 12.8151H28.5807Z" fill="#090909"></path>
<path d="M14.2205 27.1751C14.0705 27.1751 13.9205 27.1151 13.8005 27.0051L11.9205 25.1251C11.6905 24.8951 11.6905 24.5251 11.9205 24.2951C12.1505 24.0651 12.5205 24.0651 12.7505 24.2951L14.6305 26.1751C14.8605 26.4051 14.8605 26.7751 14.6305 27.0051C14.5105 27.1251 14.3605 27.1751 14.2105 27.1751H14.2205Z" fill="#090909"></path>
<path d="M28.5807 12.8151C28.4307 12.8151 28.2807 12.7551 28.1607 12.6451L26.2907 10.7651C26.0607 10.5351 26.0607 10.1651 26.2907 9.93507C26.5207 9.70507 26.8907 9.70507 27.1207 9.93507L28.9907 11.8151C29.2207 12.0451 29.2207 12.4151 28.9907 12.6451C28.8707 12.7651 28.7207 12.8151 28.5707 12.8151H28.5807Z" fill="#090909"></path>
<path d="M26.5809 14.8151C26.4309 14.8151 26.2809 14.7551 26.1609 14.6451L24.2809 12.7651C24.0509 12.5351 24.0509 12.1651 24.2809 11.9351C24.5109 11.7051 24.8809 11.7051 25.1109 11.9351L26.9909 13.8151C27.2209 14.0451 27.2209 14.4151 26.9909 14.6451C26.8709 14.7651 26.7209 14.8151 26.5709 14.8151H26.5809Z" fill="#090909"></path>
<path d="M24.5907 16.8151C24.4407 16.8151 24.2907 16.7551 24.1707 16.6451L22.2907 14.7751C22.0607 14.5451 22.0607 14.1751 22.2907 13.9451C22.5207 13.7151 22.8907 13.7151 23.1207 13.9451L25.0007 15.8151C25.2307 16.0451 25.2307 16.4151 25.0007 16.6451C24.8807 16.7651 24.7307 16.8151 24.5807 16.8151H24.5907Z" fill="#090909"></path>
<path d="M22.5907 18.8051C22.4407 18.8051 22.2907 18.7451 22.1707 18.6351L20.2907 16.7651C20.0607 16.5351 20.0607 16.1651 20.2907 15.9351C20.5207 15.7051 20.8907 15.7051 21.1207 15.9351L23.0007 17.8051C23.2307 18.0351 23.2307 18.4051 23.0007 18.6351C22.8807 18.7551 22.7307 18.8051 22.5807 18.8051H22.5907Z" fill="#090909"></path>
<path d="M20.5907 20.8051C20.4407 20.8051 20.2907 20.7451 20.1707 20.6351L18.2907 18.7551C18.0607 18.5251 18.0607 18.1551 18.2907 17.9251C18.5207 17.6951 18.8907 17.6951 19.1207 17.9251L21.0007 19.8051C21.2307 20.0351 21.2307 20.4051 21.0007 20.6351C20.8807 20.7551 20.7307 20.8051 20.5807 20.8051H20.5907Z" fill="#090909"></path>
<path d="M15.5202 24.4851C15.3702 24.4851 15.2202 24.4251 15.1002 24.3151L14.6202 23.8251C14.3202 23.5251 14.1602 23.1351 14.1602 22.7151C14.1602 22.2951 14.3202 21.8951 14.6202 21.6051L15.6102 20.6151C16.2202 20.0051 17.2202 20.0051 17.8302 20.6151L18.3202 21.1051C18.5502 21.3351 18.5502 21.7051 18.3202 21.9351C18.0902 22.1651 17.7102 22.1651 17.4902 21.9351L17.0002 21.4451C16.8502 21.2951 16.6002 21.2951 16.4502 21.4451L15.4602 22.4351C15.3902 22.5051 15.3502 22.6051 15.3502 22.7151C15.3502 22.8251 15.3902 22.9151 15.4602 22.9951L15.9502 23.4851C16.1802 23.7151 16.1802 24.0851 15.9502 24.3151C15.8302 24.4351 15.6802 24.4851 15.5302 24.4851H15.5202Z" fill="#090909"></path>
<path d="M16.03 21.6151C15.88 21.6151 15.73 21.5551 15.61 21.4451C15.38 21.2151 15.38 20.8451 15.61 20.6151L28.29 7.93507C28.52 7.70507 28.89 7.70507 29.12 7.93507C29.35 8.16507 29.35 8.53507 29.12 8.76507L16.45 21.4351C16.33 21.5551 16.18 21.6051 16.03 21.6051V21.6151Z" fill="#090909"></path>
<path d="M17.0703 15.585C16.8503 15.585 16.6403 15.495 16.4903 15.345L14.0203 12.875C13.7003 12.555 13.7003 12.025 14.0203 11.705L15.4603 10.265C15.7803 9.94502 16.3003 9.94502 16.6303 10.265L19.1003 12.735C19.2603 12.885 19.3403 13.095 19.3403 13.315C19.3403 13.535 19.2503 13.745 19.1003 13.895L17.6603 15.335C17.5003 15.495 17.3003 15.575 17.0803 15.575L17.0703 15.585ZM15.1103 12.285L17.0803 14.255L18.0103 13.325L16.0403 11.355L15.1103 12.285Z" fill="#090909"></path>
<path d="M13.3203 19.335C13.1003 19.335 12.8903 19.245 12.7403 19.095L10.2703 16.625C9.95027 16.305 9.95027 15.775 10.2703 15.455L11.7103 14.015C12.0303 13.695 12.5503 13.695 12.8803 14.015L15.3503 16.485C15.5103 16.645 15.5903 16.845 15.5903 17.065C15.5903 17.285 15.5003 17.495 15.3503 17.655L13.9103 19.085C13.7603 19.245 13.5503 19.325 13.3303 19.325L13.3203 19.335ZM11.3503 16.045L13.3203 18.005L14.2603 17.075L12.2903 15.115L11.3603 16.045H11.3503Z" fill="#090909"></path>
<path d="M9.56051 23.085C9.35051 23.085 9.14051 23.005 8.98051 22.845L6.51051 20.375C6.35051 20.225 6.27051 20.015 6.27051 19.795C6.27051 19.575 6.36051 19.365 6.51051 19.215L7.95051 17.775C8.27051 17.455 8.79051 17.455 9.12051 17.775L11.5905 20.245C11.9105 20.565 11.9105 21.085 11.5905 21.415L10.1505 22.855C9.99051 23.015 9.78051 23.095 9.57051 23.095L9.56051 23.085ZM7.60051 19.795L9.56051 21.755L10.4905 20.825L8.53051 18.865L7.59051 19.795H7.60051Z" fill="#090909"></path>
<path d="M20.8205 11.8351C20.6205 11.8351 20.3905 11.7451 20.2305 11.5951L17.7605 9.1351C17.4405 8.8151 17.4405 8.2951 17.7605 7.9651L19.2005 6.5251C19.5105 6.2151 20.0605 6.2151 20.3705 6.5251L22.8305 8.9951C22.9905 9.1451 23.0705 9.3551 23.0705 9.5751C23.0705 9.7951 22.9805 10.0051 22.8305 10.1551L21.3905 11.5951C21.2305 11.7551 21.0305 11.8351 20.8105 11.8351H20.8205ZM18.8605 8.5451L20.8305 10.5051L21.7605 9.5751L19.8005 7.6151L18.8705 8.5551L18.8605 8.5451Z" fill="#090909"></path>
<path d="M11.2803 11.8851C11.1103 11.8851 10.9403 11.8151 10.8203 11.6751C10.6103 11.4251 10.6403 11.0551 10.9003 10.8451C11.1503 10.6251 11.5203 10.6651 11.7303 10.9151C11.9403 11.1651 11.9003 11.5351 11.6503 11.7451C11.5403 11.8351 11.4003 11.8851 11.2703 11.8851H11.2803Z" fill="#090909"></path>
</svg>