<svg width="30" height="28" viewBox="0 0 30 28" fill="none" xmlns="http://www.w3.org/2000/svg">
<path d="M15.78 23.11H0.59C0.27 23.11 0 22.85 0 22.52V0.819981C0 0.499981 0.26 0.22998 0.59 0.22998H15.74C16.06 0.22998 16.33 0.48998 16.33 0.819981V9.61998L17.6 10.89H17.71C18.03 10.89 18.3 11.15 18.3 11.48V20.59C18.3 20.75 18.24 20.89 18.13 21L16.2 22.93C16.09 23.04 15.94 23.1 15.79 23.1L15.78 23.11ZM1.17 21.94H15.53L17.12 20.35V12.02C17.05 11.99 16.99 11.95 16.93 11.89L15.32 10.28C15.21 10.17 15.15 10.02 15.15 9.86998V1.39998H1.17V21.94Z" fill="#090909"></path>
<path d="M27.6596 25.43H25.9396C25.6196 25.43 25.3496 25.17 25.3496 24.84V0.819981C25.3496 0.499981 25.6096 0.22998 25.9396 0.22998H27.6596C27.8196 0.22998 27.9596 0.28998 28.0696 0.39998L29.8296 2.15998C29.9396 2.26998 29.9996 2.41998 29.9996 2.56998V23.08C29.9996 23.24 29.9396 23.38 29.8296 23.49L28.0696 25.25C27.9596 25.36 27.8096 25.42 27.6596 25.42V25.43ZM26.5196 24.26H27.4096L28.8296 22.84V2.81998L27.4096 1.40998H26.5196V24.25V24.26Z" fill="#090909"></path>
<path d="M25.9304 12.06H17.3504C17.1904 12.06 17.0504 12 16.9404 11.89L15.3204 10.27C15.2104 10.16 15.1504 10.01 15.1504 9.85998V0.819981C15.1504 0.499981 15.4104 0.22998 15.7404 0.22998H25.9404C26.2604 0.22998 26.5304 0.48998 26.5304 0.819981V11.48C26.5304 11.8 26.2704 12.07 25.9404 12.07L25.9304 12.06ZM17.5904 10.89H25.3404V1.39998H16.3104V9.61998L17.5804 10.89H17.5904Z" fill="#090909"></path>
<path d="M23.8598 4.96003H17.8898C17.5698 4.96003 17.2998 4.70003 17.2998 4.37003C17.2998 4.04003 17.5598 3.78003 17.8898 3.78003H23.8598C24.1798 3.78003 24.4498 4.04003 24.4498 4.37003C24.4498 4.70003 24.1898 4.96003 23.8598 4.96003Z" fill="#090909"></path>
<path d="M23.8598 8.50996H17.8898C17.5698 8.50996 17.2998 8.24996 17.2998 7.91996C17.2998 7.58996 17.5598 7.32996 17.8898 7.32996H23.8598C24.1798 7.32996 24.4498 7.58996 24.4498 7.91996C24.4498 8.24996 24.1898 8.50996 23.8598 8.50996Z" fill="#090909"></path>
<path d="M9.58043 11.76C7.16043 11.76 5.19043 9.78998 5.19043 7.36998C5.19043 4.94998 7.16043 2.97998 9.58043 2.97998C12.0004 2.97998 13.9704 4.94998 13.9704 7.36998C13.9704 9.78998 12.0004 11.76 9.58043 11.76ZM9.58043 4.13998C7.80043 4.13998 6.36043 5.58998 6.36043 7.35998C6.36043 9.12998 7.81043 10.58 9.58043 10.58C11.3504 10.58 12.8004 9.12998 12.8004 7.35998C12.8004 5.58998 11.3504 4.13998 9.58043 4.13998Z" fill="#090909"></path>
<path d="M9.58031 9.11998C8.61031 9.11998 7.82031 8.32998 7.82031 7.35998C7.82031 6.38998 8.61031 5.59998 9.58031 5.59998C10.5503 5.59998 11.3403 6.38998 11.3403 7.35998C11.3403 8.32998 10.5503 9.11998 9.58031 9.11998ZM9.58031 6.77998C9.26031 6.77998 8.99031 7.03998 8.99031 7.36998C8.99031 7.69998 9.25031 7.95998 9.58031 7.95998C9.91031 7.95998 10.1703 7.69998 10.1703 7.36998C10.1703 7.03998 9.91031 6.77998 9.58031 6.77998Z" fill="#090909"></path>
<path d="M13.3902 7.94998C13.0702 7.94998 12.8002 7.68998 12.8002 7.35998C12.8002 7.02998 12.4702 6.76998 12.0702 6.76998C11.6702 6.76998 11.3402 7.02998 11.3402 7.35998C11.3402 7.68998 11.0802 7.94998 10.7502 7.94998C10.4202 7.94998 10.1602 7.68998 10.1602 7.35998C10.1602 6.38998 11.0102 5.59998 12.0602 5.59998C13.1102 5.59998 13.9602 6.38998 13.9602 7.35998C13.9602 7.67998 13.7002 7.94998 13.3702 7.94998H13.3902Z" fill="#090909"></path>
<path d="M7.09043 9.12002C6.04043 9.12002 5.19043 8.33002 5.19043 7.36002C5.19043 7.04002 5.45043 6.77002 5.78043 6.77002C6.11043 6.77002 6.37043 7.03002 6.37043 7.36002C6.37043 7.69002 6.70043 7.95002 7.10043 7.95002C7.50043 7.95002 7.83043 7.69002 7.83043 7.36002C7.83043 7.03002 8.09043 6.77002 8.42043 6.77002C8.75043 6.77002 9.01043 7.03002 9.01043 7.36002C9.01043 8.33002 8.16043 9.12002 7.11043 9.12002H7.09043Z" fill="#090909"></path>
<path d="M9.58031 6.77998C8.61031 6.77998 7.82031 5.92998 7.82031 4.87998C7.82031 3.82998 8.61031 2.97998 9.58031 2.97998C9.90031 2.97998 10.1703 3.23998 10.1703 3.56998C10.1703 3.89998 9.91031 4.15998 9.58031 4.15998C9.25031 4.15998 8.99031 4.48998 8.99031 4.88998C8.99031 5.28998 9.25031 5.61998 9.58031 5.61998C9.91031 5.61998 10.1703 5.87998 10.1703 6.20998C10.1703 6.53998 9.91031 6.79998 9.58031 6.79998V6.77998Z" fill="#090909"></path>
<path d="M9.58023 11.7599C9.26023 11.7599 8.99023 11.4999 8.99023 11.1699C8.99023 10.8399 9.25023 10.5799 9.58023 10.5799C9.91023 10.5799 10.1702 10.2499 10.1702 9.84994C10.1702 9.44994 9.90023 9.11994 9.58023 9.11994C9.26023 9.11994 8.99023 8.85994 8.99023 8.52994C8.99023 8.19994 9.25023 7.93994 9.58023 7.93994C10.5502 7.93994 11.3402 8.78994 11.3402 9.83994C11.3402 10.8899 10.5502 11.7399 9.58023 11.7399V11.7599Z" fill="#090909"></path>
<path d="M11.26 16.0799H0.59C0.27 16.0799 0 15.8199 0 15.4899V13.1499C0 12.8299 0.26 12.5599 0.59 12.5599H11.26C11.58 12.5599 11.85 12.8199 11.85 13.1499V15.4899C11.85 15.8099 11.59 16.0799 11.26 16.0799ZM1.17 14.9099H10.68V13.7399H1.17V14.9099Z" fill="#090909"></path>
<path d="M4.05973 18.42H3.05973C2.73973 18.42 2.46973 18.16 2.46973 17.83C2.46973 17.5 2.72973 17.24 3.05973 17.24H4.05973C4.37973 17.24 4.64973 17.5 4.64973 17.83C4.64973 18.16 4.38973 18.42 4.05973 18.42Z" fill="#090909"></path>
<path d="M11.2596 18.42H6.39957C6.07957 18.42 5.80957 18.16 5.80957 17.83C5.80957 17.5 6.06957 17.24 6.39957 17.24H11.2596C11.5796 17.24 11.8496 17.5 11.8496 17.83C11.8496 18.16 11.5896 18.42 11.2596 18.42Z" fill="#090909"></path>
<path d="M13.6095 20.6199C13.2895 20.6199 13.0195 20.3599 13.0195 20.0299V13.1399C13.0195 12.8199 13.2795 12.5499 13.6095 12.5499C13.9395 12.5499 14.1995 12.8099 14.1995 13.1399V20.0299C14.1995 20.3499 13.9395 20.6199 13.6095 20.6199Z" fill="#090909"></path>
<path d="M15.3703 20.6199C15.0503 20.6199 14.7803 20.3599 14.7803 20.0299V13.1399C14.7803 12.8199 15.0403 12.5499 15.3703 12.5499C15.7003 12.5499 15.9603 12.8099 15.9603 13.1399V20.0299C15.9603 20.3499 15.7003 20.6199 15.3703 20.6199Z" fill="#090909"></path>
<path d="M4.09984 11.0299H2.92984C2.60984 11.0299 2.33984 10.7699 2.33984 10.4399V3.14994C2.33984 2.82994 2.59984 2.55994 2.92984 2.55994H4.09984C4.41984 2.55994 4.68984 2.81994 4.68984 3.14994C4.68984 3.47994 4.42984 3.73994 4.09984 3.73994H3.50984V9.85994H4.09984C4.41984 9.85994 4.68984 10.1199 4.68984 10.4499C4.68984 10.7799 4.42984 11.0399 4.09984 11.0399V11.0299Z" fill="#090909"></path>
<path d="M5.2298 23.11H2.8898C2.5698 23.11 2.2998 22.85 2.2998 22.52V20.18C2.2998 19.86 2.5598 19.59 2.8898 19.59H5.2298C5.5498 19.59 5.8198 19.85 5.8198 20.18V22.52C5.8198 22.84 5.5598 23.11 5.2298 23.11ZM3.4698 21.94H4.6398V20.77H3.4698V21.94Z" fill="#090909"></path>
<path d="M9.92023 23.11H7.58023C7.26023 23.11 6.99023 22.85 6.99023 22.52V20.18C6.99023 19.86 7.25023 19.59 7.58023 19.59H9.92023C10.2402 19.59 10.5102 19.85 10.5102 20.18V22.52C10.5102 22.84 10.2502 23.11 9.92023 23.11ZM8.16023 21.94H9.33023V20.77H8.16023V21.94Z" fill="#090909"></path>
<path d="M2.92984 16.0799C2.60984 16.0799 2.33984 15.8199 2.33984 15.4899V13.1499C2.33984 12.8299 2.59984 12.5599 2.92984 12.5599C3.25984 12.5599 3.51984 12.8199 3.51984 13.1499V15.4899C3.51984 15.8099 3.25984 16.0799 2.92984 16.0799Z" fill="#090909"></path>
<path d="M25.9304 16.18H17.7004C17.3804 16.18 17.1104 15.92 17.1104 15.59V11.48C17.1104 11.16 17.3704 10.89 17.7004 10.89H25.9304C26.2504 10.89 26.5204 11.15 26.5204 11.48V15.59C26.5204 15.91 26.2604 16.18 25.9304 16.18ZM18.2904 15.01H25.3404V12.07H18.2904V15.01Z" fill="#090909"></path>
<path d="M25.9301 20.76H22.6301C22.4701 20.76 22.3301 20.7 22.2201 20.59L20.0501 18.42H17.7101C17.3901 18.42 17.1201 18.16 17.1201 17.83C17.1201 17.5 17.3801 17.24 17.7101 17.24H20.2901C20.4501 17.24 20.5901 17.3 20.7001 17.41L22.8701 19.58H25.9301C26.2501 19.58 26.5201 19.84 26.5201 20.17C26.5201 20.5 26.2601 20.76 25.9301 20.76Z" fill="#090909"></path>
<path d="M29.4098 22.4999H25.9298C25.6098 22.4999 25.3398 22.2399 25.3398 21.9099C25.3398 21.5799 25.5998 21.3199 25.9298 21.3199H29.4098C29.7298 21.3199 29.9998 21.5799 29.9998 21.9099C29.9998 22.2399 29.7398 22.4999 29.4098 22.4999Z" fill="#090909"></path>
<path d="M29.4103 20.15H28.3703C28.0503 20.15 27.7803 19.89 27.7803 19.56C27.7803 19.23 28.0403 18.97 28.3703 18.97H29.4103C29.7303 18.97 30.0003 19.23 30.0003 19.56C30.0003 19.89 29.7403 20.15 29.4103 20.15Z" fill="#090909"></path>
<path d="M25.93 27.77H23.59C23.27 27.77 23 27.51 23 27.18V24.84C23 24.52 23.26 24.25 23.59 24.25H25.93C26.25 24.25 26.52 24.51 26.52 24.84V27.18C26.52 27.5 26.26 27.77 25.93 27.77ZM24.17 26.6H25.34V25.43H24.17V26.6Z" fill="#090909"></path>
<path d="M4.09992 27.77H1.75992C1.43992 27.77 1.16992 27.51 1.16992 27.18V24.84C1.16992 24.52 1.42992 24.25 1.75992 24.25H4.09992C4.41992 24.25 4.68992 24.51 4.68992 24.84V27.18C4.68992 27.5 4.42992 27.77 4.09992 27.77ZM2.33992 26.6H3.50992V25.43H2.33992V26.6Z" fill="#090909"></path>
<path d="M27.66 25.43H14.36C14.04 25.43 13.77 25.17 13.77 24.84C13.77 24.51 14.03 24.25 14.36 24.25H27.41L28.82 22.84V2.81998L27.4 1.40998H1.17V24.25H9.09C9.41 24.25 9.68 24.51 9.68 24.84C9.68 25.17 9.42 25.43 9.09 25.43H0.59C0.27 25.43 0 25.17 0 24.84V0.819981C0 0.499981 0.26 0.22998 0.59 0.22998H27.66C27.82 0.22998 27.96 0.28998 28.07 0.39998L29.83 2.15998C29.94 2.26998 30 2.41998 30 2.56998V23.08C30 23.24 29.94 23.38 29.83 23.5L28.07 25.26C27.96 25.37 27.81 25.43 27.66 25.43Z" fill="#090909"></path>
</svg>