<svg width="30" height="30" viewBox="0 0 30 30" fill="none" xmlns="http://www.w3.org/2000/svg">
<path d="M28.189 1.63696H1.81108C0.812463 1.63696 0 2.44943 0 3.44804V21.6601C0 22.6587 0.812463 23.4712 1.81108 23.4712H10.8498V24.789C10.8498 25.997 9.86691 26.9799 8.65888 26.9799H6.66687C6.28495 26.9799 5.97529 27.2895 5.97529 27.6714C5.97529 28.0534 6.28495 28.363 6.66687 28.363H23.3331C23.715 28.363 24.0247 28.0534 24.0247 27.6714C24.0247 27.2895 23.715 26.9799 23.3331 26.9799H21.341C20.133 26.9799 19.1501 25.997 19.1501 24.789V23.4713H28.1888C29.1874 23.4713 29.9999 22.6588 29.9999 21.6602V3.44804C30.0001 2.44943 29.1876 1.63696 28.189 1.63696ZM11.4797 26.98C11.9512 26.3744 12.2331 25.6143 12.2331 24.7891V23.4713H17.7671V24.7891C17.7671 25.6143 18.049 26.3744 18.5204 26.98H11.4797ZM28.6169 21.6602C28.6169 21.8961 28.4249 22.0882 28.1889 22.0882H1.81108C1.57512 22.0882 1.38311 21.8962 1.38311 21.6602V18.0254H28.6169V21.6602ZM28.6169 16.6422H1.38317V3.44804C1.38317 3.21208 1.57512 3.02007 1.81114 3.02007H28.1889C28.4249 3.02007 28.617 3.21202 28.617 3.44804L28.6169 16.6422Z" fill="#090909"></path>
<path d="M15.0003 20.8035C15.4125 20.8035 15.7466 20.4694 15.7466 20.0572C15.7466 19.645 15.4125 19.3108 15.0003 19.3108C14.5881 19.3108 14.2539 19.645 14.2539 20.0572C14.2539 20.4694 14.5881 20.8035 15.0003 20.8035Z" fill="#090909"></path>
<path d="M16.1854 6.40152C15.9153 6.13146 15.4775 6.13146 15.2073 6.40152L10.3197 11.2891C10.0497 11.5591 10.0497 11.9971 10.3197 12.2672C10.4548 12.4022 10.6317 12.4697 10.8088 12.4697C10.9859 12.4697 11.1628 12.4022 11.2978 12.2672L16.1854 7.37963C16.4554 7.10957 16.4554 6.67164 16.1854 6.40152Z" fill="#090909"></path>
<path d="M19.0827 9.2338C18.8127 8.96374 18.375 8.96374 18.1047 9.23374L16.1576 11.1807C15.8876 11.4508 15.8876 11.8887 16.1576 12.1588C16.2927 12.2939 16.4696 12.3614 16.6466 12.3614C16.8236 12.3614 17.0006 12.2939 17.1357 12.1588L19.0827 10.2119C19.3528 9.94179 19.3528 9.50386 19.0827 9.2338Z" fill="#090909"></path>
</svg>