<svg width="18" height="18" viewBox="0 0 18 18" fill="none" xmlns="http://www.w3.org/2000/svg"><g clip-path="url(#clip0_1002_3956)"><path d="M9.68847 12.4428L6.93439 15.197C6.93439 15.197 6.93439 15.197 6.93432 15.197C6.93432 15.197 6.93432 15.1971 6.93426 15.1971C5.79536 16.3361 3.94212 16.3361 2.8031 15.1971C2.25131 14.6453 1.9475 13.9117 1.9475 13.1314C1.9475 12.3513 2.25131 11.6178 2.8029 11.066C2.80297 11.0659 2.80303 11.0659 2.8031 11.0658L5.55718 8.31165C5.9374 7.93137 5.9374 7.31479 5.55712 6.93458C5.1769 6.55436 4.56032 6.55436 4.18004 6.93458L1.42596 9.68873C1.42576 9.68892 1.42557 9.68918 1.42537 9.68938C0.506219 10.6089 0 11.8313 0 13.1314C0 14.4319 0.506414 15.6546 1.42602 16.5742C2.37523 17.5233 3.62195 17.9979 4.86874 17.9979C6.11553 17.9979 7.36232 17.5233 8.3114 16.5742C8.31146 16.5742 8.31146 16.574 8.31146 16.574L11.0655 13.8199C11.4458 13.4397 11.4458 12.8231 11.0655 12.4428C10.6853 12.0626 10.0688 12.0626 9.68847 12.4428Z" fill="#FF6D00"></path> <path d="M18.0004 4.86885C18.0004 3.56838 17.4939 2.34574 16.5743 1.42613C14.6759 -0.472155 11.5871 -0.47209 9.68891 1.42613C9.68884 1.42626 9.68871 1.42633 9.68865 1.42646L6.93462 4.18041C6.55434 4.56063 6.55434 5.17727 6.93462 5.55749C7.12483 5.7477 7.37398 5.84273 7.6232 5.84273C7.87234 5.84273 8.12162 5.74763 8.3117 5.55749L11.0657 2.80353C11.0658 2.8034 11.0659 2.80334 11.066 2.80321C12.2049 1.66431 14.0582 1.66425 15.1972 2.80321C15.7489 3.355 16.0529 4.08862 16.0529 4.86885C16.0529 5.64902 15.7491 6.38251 15.1974 6.93431L15.1972 6.9345L12.4431 9.68865C12.0629 10.0689 12.0629 10.6854 12.4432 11.0657C12.6333 11.2559 12.8825 11.351 13.1317 11.351C13.3809 11.351 13.6301 11.2559 13.8203 11.0657L16.5743 8.31158C16.5745 8.31138 16.5747 8.31112 16.5749 8.31093C17.4941 7.39145 18.0004 6.169 18.0004 4.86885Z" fill="#FF6D00"></path> <path d="M5.55767 12.4428C5.74781 12.6329 5.99703 12.728 6.24618 12.728C6.49539 12.728 6.74461 12.6329 6.93475 12.4428L12.443 6.93445C12.8233 6.55424 12.8233 5.93766 12.443 5.55738C12.0628 5.17716 11.4463 5.17716 11.066 5.55738L5.55767 11.0656C5.17739 11.446 5.17739 12.0625 5.55767 12.4428Z" fill="#FF6D00"></path></g> <defs><clipPath id="clip0_1002_3956"><rect width="18" height="18" fill="white"></rect></clipPath></defs></svg>