<svg width="30" height="30" viewBox="0 0 30 30" fill="none" xmlns="http://www.w3.org/2000/svg">
<path d="M29.41 30H0.59C0.27 30 0 29.74 0 29.41V10.08C0 9.75999 0.26 9.48999 0.59 9.48999H29.41C29.73 9.48999 30 9.74999 30 10.08V29.41C30 29.73 29.74 30 29.41 30ZM1.17 28.83H28.83V10.66H1.17V28.83Z" fill="#090909"></path>
<path d="M26.4804 27.07C26.4104 27.07 26.3304 27.05 26.2604 27.02C26.1904 26.99 26.1304 26.95 26.0704 26.89C26.0104 26.84 25.9704 26.78 25.9404 26.7C25.9104 26.63 25.9004 26.56 25.9004 26.48C25.9004 26.4 25.9104 26.33 25.9404 26.26C25.9704 26.18 26.0204 26.12 26.0704 26.07C26.1204 26.01 26.1904 25.97 26.2604 25.94C26.4004 25.88 26.5604 25.88 26.7104 25.94C26.7804 25.97 26.8404 26.01 26.9004 26.07C26.9504 26.12 27.0004 26.18 27.0204 26.26C27.0504 26.33 27.0704 26.41 27.0704 26.48C27.0704 26.64 27.0104 26.78 26.9004 26.89C26.8404 26.95 26.7804 26.99 26.7104 27.02C26.6404 27.05 26.5604 27.07 26.4804 27.07Z" fill="#090909"></path>
<path d="M26.4804 13.59C26.4104 13.59 26.3304 13.57 26.2604 13.55C26.1904 13.52 26.1204 13.47 26.0704 13.42C26.0204 13.36 25.9704 13.3 25.9404 13.23C25.9104 13.16 25.9004 13.08 25.9004 13C25.9004 12.85 25.9604 12.7 26.0704 12.59C26.1204 12.54 26.1904 12.49 26.2604 12.46C26.4804 12.37 26.7304 12.42 26.9004 12.59C27.0104 12.7 27.0704 12.85 27.0704 13C27.0704 13.16 27.0104 13.31 26.9004 13.42C26.7904 13.53 26.6404 13.59 26.4804 13.59Z" fill="#090909"></path>
<path d="M10.9002 26.19C7.48021 26.19 4.62021 23.49 4.46021 20.04C4.38021 18.32 4.98021 16.67 6.14021 15.4C7.30021 14.13 8.89021 13.39 10.6102 13.31C14.1502 13.15 17.1802 15.91 17.3402 19.46C17.5002 23.01 14.7402 26.03 11.1902 26.19C11.0902 26.19 10.9902 26.19 10.9002 26.19ZM10.9002 14.47C10.8202 14.47 10.7402 14.47 10.6602 14.47C9.25021 14.53 7.95021 15.14 7.00021 16.18C6.05021 17.22 5.56021 18.57 5.63021 19.98C5.76021 22.88 8.22021 25.12 11.1402 25.01C14.0402 24.88 16.3002 22.41 16.1702 19.5C16.0402 16.68 13.7002 14.47 10.9002 14.47Z" fill="#090909"></path>
<path d="M10.8901 23.26C10.2501 23.26 9.61007 23.08 9.05007 22.73C8.25007 22.24 7.69007 21.46 7.48007 20.55C7.27007 19.64 7.42007 18.69 7.91007 17.89C8.40007 17.09 9.18007 16.53 10.0901 16.32C11.0001 16.11 11.9501 16.26 12.7501 16.75C13.5501 17.24 14.1101 18.02 14.3201 18.93C14.5301 19.84 14.3801 20.79 13.8901 21.59C13.4001 22.39 12.6201 22.95 11.7101 23.16C11.4401 23.22 11.1701 23.26 10.8901 23.26ZM10.9001 17.4C10.7201 17.4 10.5401 17.42 10.3601 17.46C9.75007 17.6 9.23007 17.98 8.90007 18.51C8.57007 19.04 8.47007 19.67 8.61007 20.28C8.75007 20.89 9.13007 21.41 9.66007 21.74C10.1901 22.07 10.8201 22.17 11.4301 22.03C12.0401 21.89 12.5601 21.51 12.8801 20.98C13.2101 20.45 13.3101 19.82 13.1701 19.21C13.0301 18.6 12.6501 18.08 12.1201 17.75C11.7401 17.52 11.3201 17.4 10.8901 17.4H10.9001Z" fill="#090909"></path>
<path d="M15.6604 25.1C15.5104 25.1 15.3604 25.04 15.2504 24.93L10.9004 20.58L6.55035 24.93C6.32035 25.16 5.95035 25.16 5.72035 24.93C5.49035 24.7 5.49035 24.33 5.72035 24.1L10.0704 19.75L5.72035 15.4C5.49035 15.17 5.49035 14.8 5.72035 14.57C5.95035 14.34 6.32035 14.34 6.55035 14.57L10.9004 18.92L15.2504 14.57C15.4804 14.34 15.8504 14.34 16.0804 14.57C16.3104 14.8 16.3104 15.17 16.0804 15.4L11.7304 19.75L16.0804 24.1C16.3104 24.33 16.3104 24.7 16.0804 24.93C15.9704 25.04 15.8204 25.1 15.6704 25.1H15.6604Z" fill="#090909"></path>
<path d="M25.8396 24.73H19.9796C19.6596 24.73 19.3896 24.47 19.3896 24.14V22.09C19.3896 21.88 19.4996 21.69 19.6696 21.59L21.1296 20.71C21.2196 20.66 21.3296 20.63 21.4296 20.63H24.3596C24.4696 20.63 24.5696 20.66 24.6596 20.71L26.1196 21.59C26.2996 21.7 26.3996 21.89 26.3996 22.09V24.14C26.3996 24.46 26.1396 24.73 25.8096 24.73H25.8396ZM20.5696 23.56H25.2596V22.43L24.2196 21.81H21.6096L20.5696 22.43V23.56Z" fill="#090909"></path>
<path d="M22.9096 18.87H19.9796C19.6596 18.87 19.3896 18.61 19.3896 18.28V15.35C19.3896 15.03 19.6496 14.76 19.9796 14.76H22.9096C23.2296 14.76 23.4996 15.02 23.4996 15.35V18.28C23.4996 18.6 23.2396 18.87 22.9096 18.87ZM20.5696 17.7H22.3296V15.94H20.5696V17.7Z" fill="#090909"></path>
<path d="M10.3304 10.37C10.0104 10.37 9.74043 10.11 9.74043 9.78003V7.90003C9.74043 6.77003 10.6604 5.85003 11.7904 5.85003H25.0204C25.5004 5.85003 25.9004 5.46003 25.9004 4.97003C25.9004 4.48003 25.5104 4.09003 25.0204 4.09003H8.28043C7.96043 4.09003 7.69043 3.83003 7.69043 3.50003C7.69043 3.17003 7.95043 2.91003 8.28043 2.91003H25.0204C26.1504 2.91003 27.0704 3.83003 27.0704 4.96003C27.0704 6.09003 26.1504 7.01003 25.0204 7.01003H11.7904C11.3104 7.01003 10.9104 7.40003 10.9104 7.89003V9.77003C10.9104 10.09 10.6504 10.36 10.3204 10.36L10.3304 10.37Z" fill="#090909"></path>
<path d="M5.34992 7.03H1.75992C1.43992 7.03 1.16992 6.77 1.16992 6.44V0.59C1.16992 0.27 1.42992 0 1.75992 0H5.35992C6.80992 0 7.99992 1.18 7.99992 2.64V4.4C7.99992 5.85 6.81992 7.04 5.35992 7.04L5.34992 7.03ZM2.33992 5.86H5.34992C6.15992 5.86 6.80992 5.2 6.80992 4.4V2.64C6.80992 1.83 6.14992 1.18 5.34992 1.18H2.33992V5.86Z" fill="#090909"></path>
<path d="M7.99039 4.98004C7.67039 4.98004 7.40039 4.72004 7.40039 4.39004V2.63004C7.40039 2.31004 7.66039 2.04004 7.99039 2.04004C8.32039 2.04004 8.58039 2.30004 8.58039 2.63004V4.39004C8.58039 4.71004 8.32039 4.98004 7.99039 4.98004Z" fill="#090909"></path>
<path d="M1.46 5.56996H0.59C0.27 5.56996 0 5.30996 0 4.97996C0 4.64996 0.26 4.38996 0.59 4.38996H1.47C1.79 4.38996 2.06 4.64996 2.06 4.97996C2.06 5.30996 1.8 5.56996 1.47 5.56996H1.46ZM1.46 2.63996H0.59C0.27 2.63996 0 2.37996 0 2.04996C0 1.71996 0.26 1.45996 0.59 1.45996H1.47C1.79 1.45996 2.06 1.71996 2.06 2.04996C2.06 2.37996 1.8 2.63996 1.47 2.63996H1.46Z" fill="#090909"></path>
</svg>