<svg width="24" height="24" viewBox="0 0 24 24" fill="none" xmlns="http://www.w3.org/2000/svg">
<g clip-path="url(#clip0_830_15073)">
<path d="M7.33759 18.6677C5.95378 18.6677 4.83203 19.7895 4.83203 21.1732C4.83203 22.557 5.95383 23.6788 7.33759 23.6788C8.7214 23.6788 9.84314 22.557 9.84314 21.1732C9.8432 19.7895 8.7214 18.6677 7.33759 18.6677ZM7.33759 22.5652C6.56882 22.5652 5.94562 21.942 5.94562 21.1733C5.94562 20.4045 6.56882 19.7813 7.33759 19.7813C8.10636 19.7813 8.72955 20.4045 8.72955 21.1733C8.7296 21.942 8.10636 22.5652 7.33759 22.5652Z" fill="white"></path>
<path d="M17.9167 18.6677C16.5329 18.6677 15.4111 19.7895 15.4111 21.1732C15.4111 22.557 16.5329 23.6788 17.9167 23.6788C19.3004 23.6788 20.4222 22.557 20.4222 21.1732C20.4222 19.7895 19.3005 18.6677 17.9167 18.6677ZM17.9167 22.5652C17.1479 22.5652 16.5247 21.942 16.5247 21.1733C16.5247 20.4045 17.1479 19.7813 17.9167 19.7813C18.6855 19.7813 19.3087 20.4045 19.3087 21.1733C19.3087 21.942 18.6855 22.5652 17.9167 22.5652Z" fill="white"></path>
<path d="M23.5681 4.0518C23.4522 3.92514 23.2936 3.84585 23.1227 3.82906L4.99905 3.5785L4.49794 2.0473C4.14491 1.02371 3.18638 0.332685 2.1037 0.321228H0.238437C-0.0690826 0.321228 -0.318359 0.570505 -0.318359 0.878024C-0.318359 1.18554 -0.0690826 1.43482 0.238437 1.43482H2.1037C2.70909 1.4482 3.24217 1.83692 3.44003 2.40923L6.97568 13.0719L6.69731 13.7122C6.3868 14.5128 6.48005 15.414 6.94786 16.1342C7.41119 16.8415 8.19067 17.2781 9.03586 17.3035H19.8655C20.1731 17.3035 20.4223 17.0542 20.4223 16.7467C20.4223 16.4392 20.1731 16.1899 19.8655 16.1899H9.03581C8.55851 16.178 8.11916 15.9269 7.86653 15.5217C7.61672 15.1215 7.5654 14.6285 7.72734 14.1854L7.95008 13.6843L19.6706 12.4593C20.958 12.3175 22.0171 11.3812 22.3154 10.1208L23.6517 4.52499C23.712 4.36385 23.68 4.18262 23.5681 4.0518ZM21.2296 9.87026C21.0489 10.6816 20.36 11.2801 19.5314 11.3458L7.95008 12.5429L5.36097 4.6921L22.4267 4.94265L21.2296 9.87026Z" fill="white"></path>
</g>
<defs>
<clipPath id="clip0_830_15073">
<rect width="24" height="24" fill="white" transform="translate(-0.318359)"></rect>
</clipPath>
</defs>
</svg>