<svg width="30" height="30" viewBox="0 0 30 30" fill="none" xmlns="http://www.w3.org/2000/svg">
<g clip-path="url(#clip0_268_9241)">
<path d="M29.5 3.639V1C29.5 0.734784 29.3946 0.48043 29.2071 0.292893C29.0196 0.105357 28.7652 0 28.5 0L25.5 0C25.2348 0 24.9804 0.105357 24.7929 0.292893C24.6054 0.48043 24.5 0.734784 24.5 1V3.639C24.3485 3.72607 24.2225 3.85146 24.1348 4.00258C24.047 4.1537 24.0005 4.32524 24 4.5V8C24.0013 8.30913 24.098 8.61032 24.277 8.86235C24.456 9.11438 24.7085 9.30496 25 9.408V10.5C25.0005 10.6748 25.047 10.8463 25.1348 10.9974C25.2225 11.1485 25.3485 11.2739 25.5 11.361V20.75C25.5 21.0815 25.3683 21.3995 25.1339 21.6339C24.8995 21.8683 24.5815 22 24.25 22C23.9185 22 23.6005 21.8683 23.3661 21.6339C23.1317 21.3995 23 21.0815 23 20.75V4.5C23.0008 3.90848 22.8848 3.32262 22.6587 2.77605C22.4325 2.22948 22.1006 1.73296 21.682 1.315C21.2243 0.862054 20.6756 0.511526 20.0722 0.286634C19.4688 0.0617422 18.8245 -0.0323806 18.182 0.0105C17.0281 0.114867 15.9561 0.651171 15.1807 1.51208C14.4053 2.37298 13.9836 3.49498 14 4.6535V5H2C1.46957 5 0.960859 5.21071 0.585786 5.58579C0.210714 5.96086 0 6.46957 0 7L0 28C0 28.5304 0.210714 29.0391 0.585786 29.4142C0.960859 29.7893 1.46957 30 2 30H17C17.5304 30 18.0391 29.7893 18.4142 29.4142C18.7893 29.0391 19 28.5304 19 28V7C19 6.46957 18.7893 5.96086 18.4142 5.58579C18.0391 5.21071 17.5304 5 17 5V4.5C16.9987 4.11409 17.1465 3.74259 17.4126 3.46308C17.6787 3.18357 18.0425 3.01766 18.428 3C18.6224 2.99187 18.8164 3.02395 18.9979 3.09424C19.1793 3.16453 19.3443 3.27152 19.4825 3.4085C19.6456 3.56395 19.7755 3.7508 19.8645 3.95781C19.9534 4.16482 19.9995 4.38769 20 4.613V20.75C20 21.8772 20.4478 22.9582 21.2448 23.7552C22.0418 24.5522 23.1228 25 24.25 25C25.3772 25 26.4582 24.5522 27.2552 23.7552C28.0522 22.9582 28.5 21.8772 28.5 20.75V11.361C28.6515 11.2739 28.7775 11.1485 28.8652 10.9974C28.953 10.8463 28.9995 10.6748 29 10.5V9.408C29.2915 9.30496 29.544 9.11438 29.723 8.86235C29.902 8.61032 29.9987 8.30913 30 8V4.5C29.9995 4.32524 29.953 4.1537 29.8652 4.00258C29.7775 3.85146 29.6515 3.72607 29.5 3.639ZM25.5 1H28.5V3.5H25.5V1ZM28 10.5H26V9.5H28V10.5ZM18 7V28C18 28.2652 17.8946 28.5196 17.7071 28.7071C17.5196 28.8946 17.2652 29 17 29H2C1.73478 29 1.48043 28.8946 1.29289 28.7071C1.10536 28.5196 1 28.2652 1 28V7C1 6.73478 1.10536 6.48043 1.29289 6.29289C1.48043 6.10536 1.73478 6 2 6H17C17.2652 6 17.5196 6.10536 17.7071 6.29289C17.8946 6.48043 18 6.73478 18 7ZM27.5 20.75C27.5 21.612 27.1576 22.4386 26.5481 23.0481C25.9386 23.6576 25.112 24 24.25 24C23.388 24 22.5614 23.6576 21.9519 23.0481C21.3424 22.4386 21 21.612 21 20.75V4.613C20.9988 4.25272 20.9249 3.89638 20.7827 3.56535C20.6406 3.23431 20.433 2.93539 20.1725 2.6865C19.9363 2.45625 19.6554 2.27682 19.3472 2.15927C19.039 2.04172 18.71 1.98854 18.3805 2.003C17.7387 2.03298 17.1331 2.30923 16.6897 2.7743C16.2463 3.23937 15.9993 3.85745 16 4.5V5H15V4.6535C14.9828 3.74827 15.308 2.86992 15.9106 2.19418C16.5132 1.51844 17.3487 1.09515 18.25 1.009C18.7296 0.973912 19.2113 1.03818 19.665 1.19779C20.1186 1.3574 20.5344 1.60891 20.8864 1.93659C21.2384 2.26426 21.519 2.66106 21.7106 3.10214C21.9022 3.54322 22.0007 4.0191 22 4.5V20.75C22 21.3467 22.2371 21.919 22.659 22.341C23.081 22.7629 23.6533 23 24.25 23C24.8467 23 25.419 22.7629 25.841 22.341C26.2629 21.919 26.5 21.3467 26.5 20.75V11.5H27.5V20.75ZM29 8C29 8.13261 28.9473 8.25979 28.8536 8.35355C28.7598 8.44732 28.6326 8.5 28.5 8.5H25.5C25.3674 8.5 25.2402 8.44732 25.1464 8.35355C25.0527 8.25979 25 8.13261 25 8V4.5H29V8Z" fill="#090909"></path>
<path d="M3.5 10C3.79667 10 4.08668 9.91203 4.33336 9.74721C4.58003 9.58238 4.77229 9.34812 4.88582 9.07403C4.99935 8.79994 5.02906 8.49834 4.97118 8.20737C4.9133 7.91639 4.77044 7.64912 4.56066 7.43934C4.35088 7.22956 4.08361 7.0867 3.79264 7.02882C3.50166 6.97094 3.20006 7.00065 2.92597 7.11418C2.65189 7.22771 2.41762 7.41997 2.2528 7.66665C2.08797 7.91332 2 8.20333 2 8.5C2 8.89783 2.15804 9.27936 2.43934 9.56066C2.72064 9.84197 3.10218 10 3.5 10ZM3.5 8C3.59889 8 3.69556 8.02933 3.77779 8.08427C3.86001 8.13921 3.9241 8.2173 3.96194 8.30866C3.99978 8.40002 4.00969 8.50056 3.99039 8.59755C3.9711 8.69454 3.92348 8.78363 3.85355 8.85355C3.78363 8.92348 3.69454 8.9711 3.59755 8.99039C3.50055 9.00969 3.40002 8.99978 3.30866 8.96194C3.2173 8.9241 3.13921 8.86001 3.08427 8.77779C3.02932 8.69556 3 8.59889 3 8.5C3 8.36739 3.05268 8.24022 3.14645 8.14645C3.24022 8.05268 3.36739 8 3.5 8Z" fill="#090909"></path>
<path d="M15.5 7C15.2033 7 14.9133 7.08797 14.6666 7.2528C14.42 7.41762 14.2277 7.65189 14.1142 7.92597C14.0006 8.20006 13.9709 8.50166 14.0288 8.79264C14.0867 9.08361 14.2296 9.35088 14.4393 9.56066C14.6491 9.77044 14.9164 9.9133 15.2074 9.97118C15.4983 10.0291 15.7999 9.99935 16.074 9.88582C16.3481 9.77229 16.5824 9.58003 16.7472 9.33336C16.912 9.08668 17 8.79667 17 8.5C17 8.10218 16.842 7.72064 16.5607 7.43934C16.2794 7.15804 15.8978 7 15.5 7ZM15.5 9C15.4011 9 15.3044 8.97068 15.2222 8.91574C15.14 8.86079 15.0759 8.7827 15.0381 8.69134C15.0002 8.59998 14.9903 8.49945 15.0096 8.40245C15.0289 8.30546 15.0765 8.21637 15.1464 8.14645C15.2164 8.07652 15.3055 8.0289 15.4025 8.00961C15.4994 7.99031 15.6 8.00022 15.6913 8.03806C15.7827 8.0759 15.8608 8.13999 15.9157 8.22221C15.9707 8.30444 16 8.40111 16 8.5C16 8.63261 15.9473 8.75979 15.8536 8.85355C15.7598 8.94732 15.6326 9 15.5 9Z" fill="#090909"></path>
<path d="M3.5 25C3.20333 25 2.91332 25.088 2.66665 25.2528C2.41997 25.4176 2.22771 25.6519 2.11418 25.926C2.00065 26.2001 1.97094 26.5017 2.02882 26.7926C2.0867 27.0836 2.22956 27.3509 2.43934 27.5607C2.64912 27.7704 2.91639 27.9133 3.20737 27.9712C3.49834 28.0291 3.79994 27.9994 4.07403 27.8858C4.34811 27.7723 4.58238 27.58 4.74721 27.3334C4.91203 27.0867 5 26.7967 5 26.5C5 26.1022 4.84197 25.7206 4.56066 25.4393C4.27936 25.158 3.89783 25 3.5 25ZM3.5 27C3.40111 27 3.30444 26.9707 3.22222 26.9157C3.13999 26.8608 3.0759 26.7827 3.03806 26.6913C3.00022 26.6 2.99032 26.4994 3.00961 26.4025C3.0289 26.3055 3.07652 26.2164 3.14645 26.1464C3.21637 26.0765 3.30547 26.0289 3.40246 26.0096C3.49945 25.9903 3.59998 26.0002 3.69134 26.0381C3.78271 26.0759 3.86079 26.14 3.91574 26.2222C3.97068 26.3044 4 26.4011 4 26.5C4 26.6326 3.94732 26.7598 3.85355 26.8536C3.75979 26.9473 3.63261 27 3.5 27Z" fill="#090909"></path>
<path d="M15.5 25C15.2033 25 14.9133 25.088 14.6666 25.2528C14.42 25.4176 14.2277 25.6519 14.1142 25.926C14.0006 26.2001 13.9709 26.5017 14.0288 26.7926C14.0867 27.0836 14.2296 27.3509 14.4393 27.5607C14.6491 27.7704 14.9164 27.9133 15.2074 27.9712C15.4983 28.0291 15.7999 27.9994 16.074 27.8858C16.3481 27.7723 16.5824 27.58 16.7472 27.3334C16.912 27.0867 17 26.7967 17 26.5C17 26.1022 16.842 25.7206 16.5607 25.4393C16.2794 25.158 15.8978 25 15.5 25ZM15.5 27C15.4011 27 15.3044 26.9707 15.2222 26.9157C15.14 26.8608 15.0759 26.7827 15.0381 26.6913C15.0002 26.6 14.9903 26.4994 15.0096 26.4025C15.0289 26.3055 15.0765 26.2164 15.1464 26.1464C15.2164 26.0765 15.3055 26.0289 15.4025 26.0096C15.4994 25.9903 15.6 26.0002 15.6913 26.0381C15.7827 26.0759 15.8608 26.14 15.9157 26.2222C15.9707 26.3044 16 26.4011 16 26.5C16 26.6326 15.9473 26.7598 15.8536 26.8536C15.7598 26.9473 15.6326 27 15.5 27Z" fill="#090909"></path>
<path d="M4.634 17.018C3.769 16.778 3.5 16.6405 3.5 16.25C3.5 15.8435 3.958 15.5 4.5 15.5C4.69269 15.4894 4.88445 15.5335 5.05322 15.627C5.22199 15.7206 5.36091 15.86 5.454 16.029C5.47967 16.0895 5.51701 16.1443 5.56387 16.1903C5.61073 16.2364 5.6662 16.2727 5.72712 16.2974C5.78803 16.322 5.8532 16.3343 5.91889 16.3338C5.98459 16.3332 6.04953 16.3197 6.11 16.294C6.17047 16.2683 6.2253 16.231 6.27134 16.1841C6.31739 16.1373 6.35375 16.0818 6.37836 16.0209C6.40297 15.96 6.41534 15.8948 6.41476 15.8291C6.41418 15.7634 6.40067 15.6985 6.375 15.638C6.20567 15.2876 5.93852 14.9936 5.6058 14.7917C5.27309 14.5898 4.88903 14.4884 4.5 14.5C4.00337 14.4696 3.51481 14.6363 3.14036 14.964C2.76591 15.2916 2.53581 15.7537 2.5 16.25C2.5 17.4635 3.5785 17.763 4.366 17.982C5.231 18.222 5.5 18.3595 5.5 18.75C5.5 19.1565 5.042 19.5 4.5 19.5C4.30731 19.5106 4.11555 19.4665 3.94678 19.3729C3.77801 19.2794 3.63909 19.14 3.546 18.971C3.52033 18.9105 3.48299 18.8557 3.43613 18.8096C3.38927 18.7636 3.3338 18.7272 3.27288 18.7026C3.21197 18.678 3.1468 18.6657 3.08111 18.6662C3.01541 18.6668 2.95047 18.6803 2.89 18.706C2.82953 18.7317 2.7747 18.769 2.72866 18.8159C2.68261 18.8627 2.64625 18.9182 2.62164 18.9791C2.59703 19.04 2.58466 19.1052 2.58524 19.1709C2.58582 19.2366 2.59933 19.3015 2.625 19.362C2.79433 19.7124 3.06148 20.0064 3.3942 20.2083C3.72691 20.4102 4.11097 20.5115 4.5 20.5C4.99663 20.5304 5.4852 20.3637 5.85964 20.036C6.23409 19.7084 6.46419 19.2463 6.5 18.75C6.5 17.5365 5.4215 17.237 4.634 17.018Z" fill="#090909"></path>
<path d="M9.634 17.018C8.769 16.778 8.5 16.6405 8.5 16.25C8.5 15.8435 8.958 15.5 9.5 15.5C9.69269 15.4894 9.88445 15.5335 10.0532 15.627C10.222 15.7206 10.3609 15.86 10.454 16.029C10.4797 16.0895 10.517 16.1443 10.5639 16.1903C10.6107 16.2364 10.6662 16.2727 10.7271 16.2974C10.788 16.322 10.8532 16.3343 10.9189 16.3338C10.9846 16.3332 11.0495 16.3197 11.11 16.294C11.1705 16.2683 11.2253 16.231 11.2713 16.1841C11.3174 16.1373 11.3538 16.0818 11.3784 16.0209C11.403 15.96 11.4153 15.8948 11.4148 15.8291C11.4142 15.7634 11.4007 15.6985 11.375 15.638C11.2057 15.2876 10.9385 14.9936 10.6058 14.7917C10.2731 14.5898 9.88903 14.4884 9.5 14.5C9.00337 14.4696 8.51481 14.6363 8.14036 14.964C7.76591 15.2916 7.53581 15.7537 7.5 16.25C7.5 17.4635 8.5785 17.763 9.366 17.982C10.231 18.222 10.5 18.3595 10.5 18.75C10.5 19.1565 10.042 19.5 9.5 19.5C9.30731 19.5106 9.11555 19.4665 8.94678 19.3729C8.77801 19.2794 8.63909 19.14 8.546 18.971C8.49415 18.8489 8.39591 18.7523 8.27288 18.7026C8.14986 18.6529 8.01213 18.6541 7.89 18.706C7.76787 18.7578 7.67133 18.8561 7.62164 18.9791C7.57194 19.1021 7.57315 19.2399 7.625 19.362C7.79433 19.7124 8.06148 20.0064 8.3942 20.2083C8.72691 20.4102 9.11097 20.5115 9.5 20.5C9.99663 20.5304 10.4852 20.3637 10.8596 20.036C11.2341 19.7084 11.4642 19.2463 11.5 18.75C11.5 17.5365 10.4215 17.237 9.634 17.018Z" fill="#090909"></path>
<path d="M16.5 18.5V16.5C16.5 15.9696 16.2893 15.4609 15.9142 15.0858C15.5391 14.7107 15.0304 14.5 14.5 14.5H13C12.8674 14.5 12.7402 14.5527 12.6464 14.6464C12.5527 14.7402 12.5 14.8674 12.5 15V20C12.5 20.1326 12.5527 20.2598 12.6464 20.3536C12.7402 20.4473 12.8674 20.5 13 20.5H14.5C15.0304 20.5 15.5391 20.2893 15.9142 19.9142C16.2893 19.5391 16.5 19.0304 16.5 18.5ZM13.5 15.5H14.5C14.7652 15.5 15.0196 15.6054 15.2071 15.7929C15.3946 15.9804 15.5 16.2348 15.5 16.5V18.5C15.5 18.7652 15.3946 19.0196 15.2071 19.2071C15.0196 19.3946 14.7652 19.5 14.5 19.5H13.5V15.5Z" fill="#090909"></path>
</g>
<defs>
<clipPath id="clip0_268_9241">
<rect width="30" height="30" fill="white"></rect>
</clipPath>
</defs>
</svg>